<svg width="28" height="28" viewBox="0 0 28 28" fill="none" xmlns="http://www.w3.org/2000/svg">
  <path d="M9.86995 7.35001C9.63789 7.35001 9.41533 7.44219 9.25123 7.60629C9.08714 7.77038 8.99495 7.99294 8.99495 8.22501C8.99495 8.45707 9.08714 8.67963 9.25123 8.84372C9.41533 9.00782 9.63789 9.10001 9.86995 9.10001H17.6633L7.60662 19.1567C7.52065 19.2368 7.4517 19.3334 7.40387 19.4407C7.35605 19.548 7.33033 19.6639 7.32826 19.7814C7.32619 19.8989 7.3478 20.0156 7.39181 20.1245C7.43582 20.2335 7.50132 20.3325 7.58441 20.4156C7.6675 20.4986 7.76647 20.5641 7.87542 20.6081C7.98437 20.6522 8.10107 20.6738 8.21856 20.6717C8.33605 20.6696 8.45191 20.6439 8.55925 20.5961C8.66658 20.5483 8.76318 20.4793 8.84328 20.3933L18.9 10.3367V18.13C18.9 18.3621 18.9921 18.5846 19.1562 18.7487C19.3203 18.9128 19.5429 19.005 19.775 19.005C20.007 19.005 20.2296 18.9128 20.3937 18.7487C20.5578 18.5846 20.65 18.3621 20.65 18.13V8.22501C20.6493 8.1087 20.6255 7.99368 20.58 7.88667C20.5164 7.73751 20.4133 7.6086 20.2816 7.51398C20.15 7.41937 19.9949 7.36265 19.8333 7.35001H9.86995Z" fill="currentColor"/>
</svg>
