<svg xmlns="http://www.w3.org/2000/svg" width="25" height="24" viewBox="0 0 25 24" fill="none"> 
  <path d="M21.2155 3.92045L3 8V7.05827C2.99992 6.83054 3.07755 6.60956 3.22013 6.43168C3.36272 6.2538 3.56176 6.12962 3.78451 6.07955L22 2V2.94173C22 3.16943 21.9223 3.39034 21.7797 3.5682C21.6371 3.74605 21.4382 3.87027 21.2155 3.92045Z" fill="#122633"/> 
  <path d="M21.2155 10.9205L3 15V14.0583C2.99992 13.8305 3.07755 13.6096 3.22013 13.4317C3.36272 13.2538 3.56176 13.1296 3.78451 13.0795L22 9V9.94173C22 10.1694 21.9223 10.3903 21.7797 10.5682C21.6371 10.746 21.4382 10.8703 21.2155 10.9205Z" fill="#122633"/> 
  <path d="M21.2155 17.9205L3 22V21.0583C2.99992 20.8305 3.07755 20.6096 3.22013 20.4317C3.36272 20.2538 3.56176 20.1296 3.78451 20.0795L22 16V16.9417C22 17.1694 21.9223 17.3903 21.7797 17.5682C21.6371 17.746 21.4382 17.8703 21.2155 17.9205Z" fill="#122633"/> 
</svg>