<svg width="28" height="29" viewBox="0 0 28 29" fill="none" xmlns="http://www.w3.org/2000/svg">
<path fill-rule="evenodd" clip-rule="evenodd" d="M8.28603 10.3424C8.47055 10.0368 9.48721 8.92557 10.2127 8.95912C10.4296 8.97709 10.6213 9.10828 10.7771 9.26045C11.1347 9.6097 12.1586 10.9306 12.2167 11.2086C12.3581 11.8903 11.5457 12.2833 11.7943 12.9704C12.4282 14.5214 13.5203 15.6135 15.072 16.2467C15.7585 16.4953 16.1515 15.683 16.8333 15.825C17.1107 15.8831 18.4323 16.9069 18.7815 17.2645C18.9331 17.4197 19.0649 17.612 19.0829 17.8288C19.1098 18.5926 17.9296 19.6236 17.6996 19.7554C17.1568 20.1436 16.4487 20.137 15.5854 19.7357C13.1764 18.7334 9.32665 14.9563 8.3058 12.4564C7.91519 11.598 7.88823 10.8851 8.28603 10.3424Z" stroke="white" stroke-linecap="round" stroke-linejoin="round"/>
</svg>
