<svg width="34" height="34" viewBox="0 0 34 34" fill="none" xmlns="http://www.w3.org/2000/svg">
  <path d="M15.9378 26.5625C15.9378 27.7383 14.9887 28.6875 13.8128 28.6875C12.637 28.6875 11.6878 27.7383 11.6878 26.5625C11.6878 25.3867 12.637 24.4375 13.8128 24.4375C14.9887 24.4375 15.9378 25.3867 15.9378 26.5625ZM25.1462 26.5625C25.1462 27.7383 24.197 28.6875 23.0212 28.6875C21.8453 28.6875 20.8962 27.7383 20.8962 26.5625C20.8962 25.3867 21.8453 24.4375 23.0212 24.4375C24.197 24.4375 25.1462 25.3867 25.1462 26.5625ZM29.3678 10.88L26.5345 22.2133C26.4212 22.6808 25.9962 23.0208 25.5003 23.0208H11.3337C10.8237 23.0208 10.3845 22.6525 10.2853 22.1425L7.60783 7.4375H5.66699C5.08616 7.4375 4.60449 6.95583 4.60449 6.375C4.60449 5.79417 5.08616 5.3125 5.66699 5.3125H8.50033C9.01033 5.3125 9.44949 5.68083 9.54866 6.19083L10.1578 9.5625H28.3337C28.6595 9.5625 28.9712 9.71833 29.1695 9.97333C29.3678 10.2283 29.4387 10.5683 29.3678 10.88ZM26.9737 11.6875H10.5403L12.212 20.8958H24.6645L26.9595 11.6875H26.9737Z" fill="white"/>
</svg>
