<svg width="69" height="68" viewBox="0 0 69 68" fill="none" xmlns="http://www.w3.org/2000/svg">
<g clip-path="url(#clip0_869_1428)">
<path opacity="0.937" fill-rule="evenodd" clip-rule="evenodd" d="M68.8188 48.6758C68.8188 51.9075 68.8188 55.1394 68.8188 58.3711C68.3516 58.9289 67.7761 59.0395 67.0923 58.7031C67.0091 58.6035 66.9427 58.4928 66.8931 58.3711C66.8488 55.4935 66.8045 52.6159 66.7603 49.7383C66.7405 48.746 66.2756 48.0598 65.3657 47.6797C63.8254 47.245 62.298 46.7802 60.7837 46.2852C59.9426 47.1263 59.1014 47.9675 58.2603 48.8086C58.216 51.9961 58.1717 55.1836 58.1274 58.3711C58.061 58.6145 57.906 58.7695 57.6626 58.8359C56.8874 59.1005 56.3782 58.8569 56.1353 58.1055C56.091 54.9622 56.0467 51.8191 56.0024 48.6758C55.2037 47.8547 54.3847 47.0579 53.5454 46.2852C53.2406 46.4089 52.9306 46.5196 52.6157 46.6172C53.1929 47.351 53.6135 48.1699 53.8774 49.0742C53.966 52.1731 53.966 55.2722 53.8774 58.3711C53.811 58.6145 53.656 58.7695 53.4126 58.8359C52.5889 59.0777 52.0798 58.7899 51.8853 57.9727C51.841 55.1394 51.7967 52.306 51.7524 49.4727C51.4332 48.3123 50.7027 47.5374 49.561 47.1484C47.5467 46.418 45.5324 45.6875 43.5181 44.957C42.4503 46.2472 41.4763 47.6195 40.5962 49.0742C39.6836 49.95 38.6875 50.0606 37.6079 49.4063C37.0545 48.8528 36.5012 48.2995 35.9478 47.7461C35.9035 51.2878 35.8592 54.8294 35.8149 58.3711C35.4225 58.8727 34.9134 59.0276 34.2876 58.8359C34.0819 58.6747 33.927 58.4755 33.8228 58.2383C33.7785 54.7409 33.7342 51.2435 33.6899 47.7461C33.0923 48.3438 32.4946 48.9414 31.897 49.5391C30.9195 50.0167 30.012 49.9059 29.1743 49.207C28.2889 47.8789 27.4035 46.5508 26.5181 45.2227C26.4199 45.08 26.2871 44.9914 26.1196 44.957C24.1053 45.6875 22.091 46.418 20.0767 47.1484C18.935 47.5374 18.2045 48.3123 17.8853 49.4727C17.841 52.3503 17.7967 55.2278 17.7524 58.1055C17.5095 58.8569 17.0003 59.1005 16.2251 58.8359C16.0259 58.7253 15.8709 58.5703 15.7603 58.3711C15.6717 55.3164 15.6717 52.2617 15.7603 49.207C15.8677 48.6413 16.0669 48.11 16.3579 47.6133C16.1284 47.354 15.8406 47.177 15.4946 47.082C14.9428 47.5452 14.3894 48.01 13.8345 48.4766C12.1981 49.4503 10.5601 49.4503 8.92041 48.4766C8.36552 48.01 7.81213 47.5452 7.26025 47.082C6.12319 47.6174 4.99429 48.1707 3.87354 48.7422C3.28167 49.1955 2.94964 49.7931 2.87744 50.5352C2.83317 53.1472 2.7889 55.7591 2.74463 58.3711C2.55963 58.7517 2.24974 58.9288 1.81494 58.9023C1.36783 58.9116 1.0358 58.7346 0.818848 58.3711C0.818848 55.405 0.818848 52.4388 0.818848 49.4727C1.14309 48.4974 1.71862 47.6784 2.54541 47.0156C3.58455 46.5182 4.60278 45.987 5.6001 45.4219C4.08088 44.7854 2.86343 43.7893 1.94775 42.4336C1.85921 42.0794 1.85921 41.7253 1.94775 41.3711C2.31104 40.4318 2.53239 39.4578 2.61182 38.4492C2.72545 36.4111 2.85826 34.3745 3.01025 32.3398C4.28593 26.8652 7.71692 24.4525 13.3032 25.1016C16.8267 26.1463 18.9739 28.4705 19.7446 32.0742C19.9266 34.4197 20.1036 36.7661 20.2759 39.1133C20.4159 40.0714 20.6593 41.0011 21.0063 41.9023C20.227 43.5446 18.9875 44.7177 17.2876 45.4219C17.5472 45.6969 17.8571 45.7855 18.2173 45.6875C20.4986 44.75 22.8006 43.8645 25.1235 43.0313C25.2336 42.7901 25.3444 42.5466 25.4556 42.3008C26.1241 41.6767 26.7438 41.0126 27.3149 40.3086C27.4035 39.2019 27.4035 38.095 27.3149 36.9883C24.0399 33.8509 22.6233 29.9993 23.0649 25.4336C22.6199 24.3196 22.3099 23.1685 22.1353 21.9805C22.0467 20.4309 22.0467 18.8816 22.1353 17.332C22.9234 12.7366 25.6018 9.96963 30.1704 9.03125C35.7928 8.94271 41.4152 8.94271 47.0376 9.03125C47.281 9.09766 47.436 9.25261 47.5024 9.4961C47.591 13.7019 47.591 17.9075 47.5024 22.1133C47.3545 23.2654 47.0446 24.3723 46.5728 25.4336C47.1407 30.0782 45.7239 33.974 42.3228 37.1211C42.2342 38.1836 42.2342 39.2461 42.3228 40.3086C43.1577 41.1423 43.8882 42.0499 44.5142 43.0313C46.3957 43.7175 48.2771 44.4036 50.1587 45.0898C51.0319 44.8549 51.8952 44.5893 52.7485 44.293C52.9027 43.7225 52.9249 43.1469 52.8149 42.5664C50.9675 41.1745 49.9492 39.3152 49.7603 36.9883C49.716 36.1914 49.6717 35.3945 49.6274 34.5977C48.0099 31.4007 48.5191 28.5895 51.1548 26.1641C52.0707 25.507 53.0889 25.1086 54.2095 24.9688C57.8396 24.8802 61.4699 24.8802 65.1001 24.9688C65.2551 25.1237 65.41 25.2786 65.5649 25.4336C65.6535 27.7356 65.6535 30.0378 65.5649 32.3398C65.3856 33.1876 65.0758 33.9845 64.6353 34.7305C65.0765 38.0152 64.014 40.6714 61.4478 42.6992C61.3179 43.2836 61.3843 43.837 61.647 44.3594C63.2911 44.8257 64.929 45.3127 66.561 45.8203C67.7136 46.47 68.4662 47.4218 68.8188 48.6758ZM30.3032 11.0898C35.3501 11.0898 40.397 11.0898 45.4438 11.0898C45.466 14.7203 45.4438 18.3506 45.3774 21.9805C45.1746 23.0315 44.8648 24.0497 44.4478 25.0352C44.4035 26.4961 44.3592 27.957 44.3149 29.418C43.4633 33.6342 40.9621 36.3125 36.811 37.4531C31.7636 38.106 28.1555 36.136 25.9868 31.543C25.7556 30.9381 25.5786 30.3183 25.4556 29.6836C25.2963 28.0953 25.2077 26.5015 25.1899 24.9023C24.7153 23.8893 24.4054 22.8268 24.2603 21.7148C24.1717 20.2981 24.1717 18.8816 24.2603 17.4648C24.9437 14.0593 26.9579 11.9342 30.3032 11.0898ZM10.5142 27.0273C14.2474 26.9787 16.6158 28.7495 17.6196 32.3398C17.7964 33.2641 17.8406 34.1938 17.7524 35.1289C16.1316 33.1111 14.0288 31.8936 11.4438 31.4766C10.506 31.2465 9.5763 31.2465 8.65479 31.4766C8.01286 32.1185 7.37093 32.7605 6.729 33.4023C6.27938 33.9732 6.30152 34.5266 6.79541 35.0625C7.13144 35.2514 7.4856 35.2956 7.85791 35.1953C8.55029 34.5686 9.25863 33.9709 9.98291 33.4023C12.7189 33.5851 14.866 34.7804 16.4243 36.9883C16.528 37.1515 16.5944 37.3286 16.6235 37.5195C15.9802 40.2548 14.2536 41.7157 11.4438 41.9023C8.00185 41.4924 6.16462 39.5445 5.93213 36.0586C5.68204 35.7234 5.35001 35.5462 4.93604 35.5273C4.72367 32.9107 5.47628 30.6307 7.19385 28.6875C8.16817 27.8461 9.27495 27.2928 10.5142 27.0273ZM54.2095 27.0273C57.3084 27.0273 60.4074 27.0273 63.5063 27.0273C63.5285 28.7102 63.5063 30.3926 63.4399 32.0742C63.1667 32.842 62.8569 33.5945 62.5103 34.332C62.466 35.4388 62.4217 36.5456 62.3774 37.6523C61.6595 40.2515 59.9551 41.6682 57.2642 41.9023C54.5102 41.7391 52.7614 40.3224 52.0181 37.6523C51.8722 36.4619 51.7837 35.2666 51.7524 34.0664C49.9906 30.7928 50.8096 28.4464 54.2095 27.0273ZM29.5063 38.582C33.0038 40.1665 36.5012 40.1665 39.9985 38.582C40.1526 39.1078 40.1748 39.6391 40.0649 40.1758C38.3344 41.397 36.5858 42.5923 34.8188 43.7617C33.0519 42.5923 31.3033 41.397 29.5728 40.1758C29.5065 39.6464 29.4843 39.1151 29.5063 38.582ZM4.5376 39.6445C5.12748 40.8778 5.99077 41.896 7.12744 42.6992C7.21599 43.0534 7.21599 43.4075 7.12744 43.7617C6.01402 43.3557 5.04005 42.736 4.20557 41.9023C4.33494 41.1603 4.44561 40.4078 4.5376 39.6445ZM18.0845 39.7773C18.2797 40.2354 18.4346 40.7224 18.5493 41.2383C18.6379 41.4597 18.6379 41.681 18.5493 41.9023C17.7523 42.7214 16.8226 43.3412 15.7603 43.7617C15.6717 43.4075 15.6717 43.0534 15.7603 42.6992C16.1981 42.3944 16.5966 42.0402 16.9556 41.6367C17.4182 41.0647 17.7945 40.445 18.0845 39.7773ZM28.5767 42.168C30.0978 43.1791 31.6029 44.2194 33.0923 45.2891C32.3176 46.0638 31.5428 46.8386 30.7681 47.6133C29.7942 46.1966 28.8201 44.78 27.8462 43.3633C27.7576 43.2305 27.7576 43.0977 27.8462 42.9648C28.1171 42.7165 28.3606 42.4509 28.5767 42.168ZM40.9282 42.168C41.0264 42.1506 41.115 42.1728 41.1938 42.2344C41.4098 42.5834 41.6754 42.8933 41.9907 43.1641C40.9561 44.6356 39.9378 46.1186 38.936 47.6133C38.119 46.8626 37.3221 46.0879 36.5454 45.2891C38.0304 44.2669 39.4913 43.2265 40.9282 42.168ZM9.31885 43.7617C10.7349 44.1158 12.1516 44.1158 13.5688 43.7617C14.0626 45.6176 13.3543 46.7244 11.4438 47.082C10.4953 46.9544 9.72058 46.5117 9.11963 45.7539C9.23905 45.1063 9.30546 44.4423 9.31885 43.7617ZM55.0063 43.7617C56.3806 44.1057 57.7529 44.1057 59.1235 43.7617C59.2639 43.9613 59.3525 44.1827 59.3892 44.4258C58.7361 45.2787 58.0057 46.0756 57.1978 46.8164C56.4895 46.1081 55.781 45.3997 55.0728 44.6914C55.0067 44.3846 54.9847 44.0748 55.0063 43.7617Z" fill="white"/>
<path opacity="0.926" fill-rule="evenodd" clip-rule="evenodd" d="M30.7017 17.9961C33.7215 17.7813 36.6877 18.0691 39.6001 18.8594C41.0268 19.3175 42.2443 20.0922 43.2525 21.1836C43.3816 22.6314 42.7839 23.052 41.4595 22.4454C40.0051 21.2219 38.3227 20.5136 36.4126 20.3204C33.7543 20.0569 31.098 20.0789 28.4439 20.3868C28.4659 21.2733 28.4439 22.1588 28.3775 23.043C27.7752 24.046 27.1111 24.0902 26.3853 23.1758C26.2967 22.0691 26.2967 20.9622 26.3853 19.8555C26.5756 19.1784 26.9962 18.7136 27.647 18.461C28.6825 18.2934 29.7008 18.1384 30.7017 17.9961Z" fill="white"/>
<path opacity="0.922" fill-rule="evenodd" clip-rule="evenodd" d="M53.5452 30.2147C55.9062 30.1567 58.2083 30.4887 60.4515 31.2108C61.3162 31.4608 61.604 32.0142 61.3147 32.871C61.0832 33.1859 60.7733 33.363 60.3851 33.4022C58.213 32.6749 55.9773 32.2987 53.678 32.2733C52.6947 31.6476 52.6505 30.9615 53.5452 30.2147Z" fill="white"/>
<path opacity="0.924" fill-rule="evenodd" clip-rule="evenodd" d="M63.3736 50.4023C63.8959 50.3905 64.2722 50.6119 64.5025 51.0664C64.5911 53.5012 64.5911 55.9362 64.5025 58.3711C64.3175 58.7517 64.0076 58.9287 63.5728 58.9023C62.9309 58.9246 62.5767 58.6148 62.5103 57.9726C62.4217 55.8034 62.4217 53.634 62.5103 51.4648C62.5865 50.9251 62.8742 50.5708 63.3736 50.4023Z" fill="white"/>
<path opacity="0.921" fill-rule="evenodd" clip-rule="evenodd" d="M5.86573 51.7305C6.59335 51.7281 7.01393 52.0823 7.12744 52.793C7.21599 54.5195 7.21599 56.2461 7.12744 57.9727C6.83129 58.8974 6.23363 59.1409 5.33448 58.7031C5.25136 58.6035 5.18496 58.4928 5.13526 58.3711C5.04671 56.3347 5.04671 54.2981 5.13526 52.2617C5.33445 52.0002 5.57793 51.8232 5.86573 51.7305Z" fill="white"/>
<path opacity="0.916" fill-rule="evenodd" clip-rule="evenodd" d="M22.9986 52.5273C23.5391 52.5586 23.9154 52.8242 24.1275 53.3242C24.2161 54.9622 24.2161 56.6003 24.1275 58.2383C23.8041 58.8657 23.2949 59.0649 22.6001 58.8359C22.4451 58.6809 22.2903 58.5261 22.1353 58.3711C22.0467 56.6445 22.0467 54.918 22.1353 53.1914C22.3482 52.8547 22.6359 52.6333 22.9986 52.5273Z" fill="white"/>
<path opacity="0.915" fill-rule="evenodd" clip-rule="evenodd" d="M46.3735 52.5273C46.8677 52.5649 47.244 52.7863 47.5024 53.1914C47.591 54.918 47.591 56.6445 47.5024 58.3711C47.2994 58.7717 46.9673 58.9487 46.5063 58.9023C46.1311 58.9529 45.8435 58.8201 45.6431 58.5039C45.4958 57.6065 45.4294 56.6989 45.4438 55.7812C45.466 55.0066 45.4881 54.2317 45.5102 53.457C45.6454 52.9902 45.9333 52.6803 46.3735 52.5273Z" fill="white"/>
</g>
<defs>
<clipPath id="clip0_869_1428">
<rect width="68" height="68" fill="white" transform="translate(0.885254)"/>
</clipPath>
</defs>
</svg>
