<svg width="24" height="25" viewBox="0 0 24 25" fill="none" xmlns="http://www.w3.org/2000/svg">
<g clip-path="url(#clip0_899_703)">
<path opacity="0.995" fill-rule="evenodd" clip-rule="evenodd" d="M2.13281 0.476562C6.75783 0.476562 11.3828 0.476562 16.0078 0.476562C16.0078 1.36719 16.0078 2.25781 16.0078 3.14844C11.5547 3.14844 7.10156 3.14844 2.64844 3.14844C2.64844 9.3672 2.64844 15.5859 2.64844 21.8047C8.8672 21.8047 15.0859 21.8047 21.3047 21.8047C21.3047 18.2422 21.3047 14.6797 21.3047 11.1172C22.1953 11.1172 23.0859 11.1172 23.9766 11.1172C23.9766 14.8516 23.9766 18.5859 23.9766 22.3203C23.6797 23.4609 22.9609 24.1797 21.8203 24.4766C15.2578 24.4766 8.69531 24.4766 2.13281 24.4766C0.992189 24.1797 0.273437 23.4609 -0.0234375 22.3203C-0.0234375 15.7578 -0.0234375 9.19531 -0.0234375 2.63281C0.273437 1.49219 0.992189 0.773437 2.13281 0.476562Z" fill="#E1261D"/>
<path opacity="0.969" fill-rule="evenodd" clip-rule="evenodd" d="M23.9766 4.41406C23.9766 4.46094 23.9766 4.50781 23.9766 4.55469C19.5485 8.9593 15.1266 13.3734 10.7109 17.7969C10.6641 17.8281 10.6172 17.8281 10.5703 17.7969C8.57747 15.8119 6.59311 13.8197 4.61719 11.8203C5.21808 11.196 5.82745 10.5788 6.44531 9.96875C6.49219 9.93749 6.53906 9.93749 6.58594 9.96875C7.93748 11.3203 9.28908 12.6719 10.6406 14.0234C14.4453 10.2187 18.25 6.41408 22.0547 2.60938C22.086 2.57812 22.1172 2.57812 22.1484 2.60938C22.7516 3.22041 23.361 3.82197 23.9766 4.41406Z" fill="#E1261D"/>
</g>
<defs>
<clipPath id="clip0_899_703">
<rect width="24" height="24" fill="white" transform="translate(0 0.5)"/>
</clipPath>
</defs>
</svg>
