<svg width="143" height="138" viewBox="0 0 143 138" fill="none" xmlns="http://www.w3.org/2000/svg">
<g clip-path="url(#clip0_1207_223)">
<path d="M26.75 106.561L18.4065 111.701L14.0811 104.681L22.4246 99.5404L22.9607 100.41L15.1416 105.228L15.2404 104.855L18.7728 110.588L18.3949 110.508L26.2139 105.691L26.75 106.561Z" fill="white"/>
<path d="M16.8049 84.7491C16.968 85.4968 16.9561 86.1872 16.7694 86.8202C16.5735 87.4552 16.2368 87.9919 15.7592 88.4304C15.2725 88.8708 14.6736 89.1686 13.9623 89.3237C13.251 89.4788 12.589 89.4655 11.9762 89.2839C11.3615 89.0932 10.8414 88.7671 10.416 88.3058C9.97953 87.8374 9.68871 87.2704 9.54356 86.6047C9.39642 85.9299 9.4212 85.2987 9.61791 84.7114C9.80352 84.1168 10.1416 83.6085 10.6323 83.1862C11.1138 82.766 11.7148 82.4773 12.4352 82.3203C12.4808 82.3103 12.5319 82.3039 12.5886 82.3011C12.6342 82.2912 12.6844 82.2803 12.7391 82.2683L14.1021 88.5194L13.3772 88.6775L12.1275 82.9462L12.4982 83.2666C11.9784 83.3799 11.5428 83.5943 11.1913 83.9098C10.8286 84.2181 10.5751 84.5886 10.4306 85.0213C10.2861 85.454 10.2686 85.9212 10.378 86.4227C10.4853 86.9152 10.6958 87.3326 11.0092 87.675C11.3227 88.0174 11.7085 88.2533 12.1666 88.3827C12.6246 88.512 13.1181 88.5191 13.647 88.4037L13.7975 88.3709C14.3447 88.2516 14.8021 88.0277 15.1699 87.6991C15.5266 87.3634 15.7767 86.9555 15.9204 86.4752C16.0529 85.9877 16.0585 85.4659 15.9372 84.9096C15.8418 84.4719 15.6758 84.083 15.4392 83.7429C15.2007 83.3937 14.892 83.1172 14.5132 82.9132L15.0231 82.2288C15.4757 82.4645 15.855 82.8021 16.161 83.2417C16.465 83.6721 16.6797 84.1746 16.8049 84.7491Z" fill="white"/>
<path d="M12.3935 65.6288C12.5408 66.0732 12.6504 66.5188 12.7225 66.9658C12.7861 67.4026 12.7986 67.8349 12.7599 68.2624C12.6818 69.1269 12.4248 69.7925 11.989 70.2591C11.5439 70.725 10.9077 70.9205 10.0805 70.8457L7.68223 70.6289L7.77046 69.6529L10.1129 69.8646C10.6706 69.9151 11.1053 69.7716 11.417 69.4343C11.7286 69.097 11.9121 68.6216 11.9676 68.0081C12.0012 67.6363 11.99 67.2416 11.934 66.8242C11.8688 66.406 11.7621 65.9793 11.614 65.5442L12.3935 65.6288ZM15.4813 65.9922L8.16119 65.3305L8.25068 64.3406L15.5708 65.0023L15.4813 65.9922Z" fill="white"/>
<path d="M19.7907 49.117L18.2917 48.4921L18.0301 48.4285L15.5232 47.3834C14.946 47.1428 14.4341 47.1215 13.9875 47.3196C13.5445 47.509 13.1901 47.9225 12.9243 48.56C12.7412 48.9993 12.6402 49.4477 12.6215 49.905C12.6027 50.3623 12.6565 50.7791 12.7827 51.1553L11.9255 51.2833C11.7763 50.8166 11.7247 50.3098 11.7707 49.7627C11.8082 49.212 11.9382 48.6696 12.1609 48.1355C12.5272 47.2568 13.0288 46.6722 13.6657 46.3815C14.2976 46.0787 15.0571 46.1122 15.9444 46.4821L20.157 48.2383L19.7907 49.117ZM18.8802 51.4829C18.6683 51.9911 18.4015 52.4007 18.0798 52.7115C17.7531 53.0101 17.402 53.1974 17.0265 53.2734C16.6424 53.3459 16.2565 53.3013 15.8688 53.1397C15.5156 52.9924 15.231 52.7777 15.0149 52.4955C14.7939 52.2011 14.6762 51.8284 14.6619 51.3776C14.6426 50.9145 14.7677 50.3599 15.037 49.7138L16.0121 47.3749L16.697 47.6604L15.7327 49.9735C15.4597 50.6282 15.3857 51.1332 15.5105 51.4887C15.639 51.8355 15.8755 52.0807 16.2201 52.2243C16.6077 52.386 16.9807 52.3645 17.339 52.1599C17.6973 51.9554 17.9896 51.5818 18.2158 51.039C18.4313 50.5222 18.5 50.03 18.4218 49.5626C18.3386 49.083 18.109 48.6637 17.7329 48.3046L18.4522 48.3619C18.8284 48.7209 19.0602 49.1715 19.1477 49.7135C19.2387 50.247 19.1496 50.8368 18.8802 51.4829Z" fill="white"/>
<path d="M26.9525 36.7747L21.6972 32.5418L22.0624 32.5124L20.1567 34.8784L19.4807 34.3339L23.5994 29.2204L24.2754 29.7648L22.3698 32.1308L22.3207 31.7677L27.576 36.0006L26.9525 36.7747Z" fill="white"/>
<path d="M36.1531 21.255C36.9103 20.7253 37.5991 20.4853 38.2198 20.535C38.848 20.5793 39.3819 20.909 39.8215 21.524C40.2774 22.1619 40.4148 22.8036 40.2339 23.4492C40.0605 24.0894 39.5724 24.6906 38.7697 25.2529L36.3469 26.9674L32.073 20.9878L32.8816 20.4098L34.3714 22.4941L36.1531 21.255ZM38.2845 24.6704C38.8443 24.2818 39.1832 23.8732 39.3013 23.4446C39.4216 23.003 39.3217 22.5582 39.0014 22.1102C38.6812 21.6622 38.3074 21.4361 37.8799 21.4319C37.447 21.4201 36.9469 21.6112 36.3796 22.0052L34.8029 23.0977L36.7079 25.7629L38.2845 24.6704Z" fill="white"/>
<path d="M60.9896 15.2049L60.1114 7.90756L61.0983 7.7888L61.4864 11.0135L66.0872 10.4599L65.6991 7.23517L66.686 7.11641L67.5641 14.4138L66.5773 14.5325L66.1892 11.3078L61.5884 11.8614L61.9764 15.0862L60.9896 15.2049Z" fill="white"/>
<path d="M84.1483 15.4065L84.4645 13.8136L84.4751 13.5445L85.004 10.8805C85.1257 10.2672 85.0454 9.76117 84.7629 9.36254C84.4896 8.96573 84.0143 8.70008 83.3368 8.5656C82.8699 8.47291 82.4105 8.46259 81.9585 8.53462C81.5064 8.60665 81.1085 8.74175 80.7647 8.93993L80.4697 8.1249C80.8977 7.88633 81.3844 7.73554 81.9298 7.67253C82.477 7.60036 83.0344 7.62062 83.6019 7.73329C84.5357 7.91866 85.208 8.29477 85.6188 8.86161C86.0406 9.42112 86.1579 10.1723 85.9708 11.1153L85.0821 15.5919L84.1483 15.4065ZM81.6492 14.9818C81.109 14.8746 80.6548 14.694 80.2866 14.4401C79.9293 14.1789 79.6762 13.8717 79.5275 13.5187C79.3805 13.1564 79.3479 12.7694 79.4297 12.3574C79.5042 11.9821 79.6584 11.6606 79.8923 11.393C80.1372 11.1181 80.4792 10.9291 80.9184 10.826C81.3685 10.7155 81.9369 10.7284 82.6235 10.8647L85.109 11.3581L84.9645 12.0859L82.5065 11.598C81.8107 11.4598 81.301 11.4871 80.9773 11.6798C80.6627 11.8742 80.4691 12.1546 80.3964 12.5208C80.3146 12.9327 80.4094 13.2941 80.6807 13.6049C80.9521 13.9157 81.3761 14.1283 81.9529 14.2428C82.5022 14.3518 82.9982 14.3218 83.4409 14.1528C83.8946 13.9764 84.2602 13.6684 84.5378 13.2287L84.624 13.9452C84.3464 14.3849 83.9505 14.7012 83.4365 14.8941C82.9315 15.0889 82.3358 15.1181 81.6492 14.9818Z" fill="white"/>
<path d="M108.503 26.9703C107.939 26.5092 107.534 25.9727 107.288 25.3606C107.054 24.7472 106.988 24.1204 107.09 23.4801C107.198 22.8326 107.482 22.2272 107.943 21.6639C108.41 21.0933 108.947 20.6947 109.555 20.4683C110.162 20.2418 110.787 20.1861 111.428 20.3011C112.077 20.422 112.683 20.7131 113.247 21.1741C113.731 21.5702 114.091 22.0217 114.327 22.5287C114.563 23.0357 114.64 23.5687 114.556 24.1275L113.663 24.0476C113.704 23.599 113.637 23.1879 113.46 22.8143C113.284 22.4406 113.026 22.1148 112.686 21.837C112.282 21.5059 111.84 21.3013 111.361 21.2231C110.889 21.1377 110.422 21.1842 109.963 21.3628C109.503 21.5413 109.09 21.8545 108.723 22.3023C108.357 22.7501 108.131 23.217 108.047 23.7029C107.963 24.1888 108.007 24.6587 108.178 25.1125C108.355 25.5591 108.646 25.9479 109.051 26.2789C109.39 26.5568 109.76 26.7453 110.162 26.8445C110.563 26.9437 110.976 26.9323 111.402 26.8102L111.657 27.6702C111.131 27.8553 110.594 27.8858 110.044 27.7616C109.501 27.6301 108.987 27.3664 108.503 26.9703Z" fill="white"/>
<path d="M118.617 37.364L124.138 33.4832L124.065 33.8424L122.318 31.357L123.028 30.8578L126.804 36.2294L126.094 36.7286L124.347 34.2432L124.709 34.2964L119.189 38.1772L118.617 37.364Z" fill="white"/>
<path d="M126.442 52.0996C126.194 51.3755 126.126 50.6884 126.239 50.0381C126.361 49.3849 126.634 48.813 127.058 48.3227C127.491 47.8293 128.052 47.4648 128.741 47.2291C129.429 46.9934 130.089 46.9306 130.718 47.0408C131.351 47.1597 131.905 47.4239 132.38 47.8334C132.868 48.2487 133.222 48.7786 133.442 49.4232C133.666 50.0767 133.713 50.7065 133.585 51.3126C133.469 51.9245 133.192 52.4683 132.753 52.944C132.323 53.4167 131.759 53.7724 131.061 54.0111C131.017 54.0262 130.967 54.0384 130.911 54.0477C130.867 54.0628 130.818 54.0794 130.765 54.0976L128.694 48.0441L129.396 47.8039L131.295 53.354L130.89 53.0783C131.393 52.9061 131.801 52.6431 132.114 52.2894C132.439 51.9415 132.649 51.5443 132.743 51.0979C132.836 50.6515 132.8 50.1854 132.634 49.6997C132.471 49.2229 132.214 48.8323 131.863 48.5281C131.513 48.224 131.102 48.0339 130.632 47.9579C130.163 47.8819 129.671 47.9316 129.159 48.1068L129.014 48.1567C128.484 48.338 128.055 48.6129 127.727 48.9815C127.412 49.3559 127.21 49.7899 127.122 50.2835C127.047 50.7829 127.101 51.3019 127.285 51.8406C127.43 52.2645 127.64 52.6318 127.914 52.9425C128.191 53.262 128.529 53.5013 128.929 53.6605L128.501 54.3988C128.024 54.2167 127.609 53.9248 127.254 53.5232C126.903 53.1305 126.632 52.656 126.442 52.0996Z" fill="white"/>
<path d="M129.845 66.0246L137.195 65.9221L137.208 66.916L133.961 66.9613L134.025 71.5948L137.273 71.5496L137.287 72.5435L129.938 72.6459L129.924 71.652L133.171 71.6067L133.107 66.9732L129.859 67.0185L129.845 66.0246Z" fill="white"/>
<path d="M127.198 89.0321L128.748 89.5147L129.015 89.5537L131.608 90.361C132.205 90.5468 132.717 90.5204 133.143 90.2816C133.566 90.0517 133.881 89.6071 134.086 88.9476C134.228 88.4931 134.286 88.0374 134.262 87.5803C134.239 87.1232 134.146 86.7132 133.986 86.3504L134.827 86.1432C135.019 86.5939 135.118 87.0938 135.123 87.6428C135.137 88.1945 135.058 88.7467 134.886 89.2992C134.603 90.2082 134.158 90.837 133.551 91.1856C132.95 91.546 132.19 91.5833 131.272 91.2976L126.915 89.941L127.198 89.0321ZM127.884 86.5918C128.048 86.066 128.275 85.6334 128.567 85.294C128.864 84.9663 129.196 84.7471 129.563 84.6365C129.939 84.5286 130.327 84.5371 130.728 84.6619C131.094 84.7756 131.397 84.9629 131.638 85.2238C131.886 85.4963 132.038 85.8564 132.094 86.304C132.156 86.7633 132.083 87.3271 131.875 87.9955L131.122 90.415L130.414 90.1944L131.158 87.8017C131.369 87.1244 131.396 86.6146 131.239 86.2724C131.078 85.939 130.82 85.7169 130.464 85.6059C130.063 85.4811 129.693 85.5372 129.356 85.7742C129.018 86.0112 128.762 86.4104 128.587 86.9718C128.42 87.5065 128.398 88.0029 128.519 88.461C128.647 88.9308 128.914 89.3269 129.322 89.6494L128.601 89.6594C128.193 89.3369 127.92 88.9099 127.782 88.3783C127.642 87.8556 127.676 87.2601 127.884 86.5918Z" fill="white"/>
<path d="M122.688 99.8494L124.282 104.684L123.884 104.398L128.694 104.09L128.065 105.017L124.099 105.254L124.346 104.914L125.583 108.678L124.97 109.582L123.457 104.954L123.889 105.264L118.792 105.597L119.428 104.659L123.647 104.423L123.381 104.716L122.06 100.776L122.688 99.8494Z" fill="white"/>
</g>
<defs>
<clipPath id="clip0_1207_223">
<rect width="143" height="138" fill="white"/>
</clipPath>
</defs>
</svg>
