<svg width="211" height="33" viewBox="0 0 211 33" fill="none" xmlns="http://www.w3.org/2000/svg">
<path d="M7.39863 8.624H0.518625V3.6H20.5826V8.624H13.7346V26H7.39863V8.624ZM28.1034 10.736C28.722 9.94667 29.522 9.36 30.5034 8.976C31.506 8.57067 32.6474 8.368 33.9274 8.368V13.84C33.3727 13.776 32.914 13.744 32.5514 13.744C31.25 13.744 30.226 14.096 29.4794 14.8C28.754 15.504 28.3914 16.5813 28.3914 18.032V26H22.3114V8.656H28.1034V10.736ZM36.4364 8.656H42.5164V26H36.4364V8.656ZM39.4764 6.736C38.367 6.736 37.471 6.42666 36.7884 5.808C36.1057 5.18933 35.7644 4.42133 35.7644 3.504C35.7644 2.58667 36.1057 1.81867 36.7884 1.2C37.471 0.581333 38.367 0.271999 39.4764 0.271999C40.5857 0.271999 41.4817 0.570666 42.1644 1.168C42.847 1.744 43.1884 2.49067 43.1884 3.408C43.1884 4.368 42.847 5.168 42.1644 5.808C41.4817 6.42666 40.5857 6.736 39.4764 6.736ZM65.1236 8.656V22.832C65.1236 26.0533 64.249 28.464 62.4996 30.064C60.7503 31.6853 58.233 32.496 54.9476 32.496C53.241 32.496 51.641 32.304 50.1476 31.92C48.6543 31.536 47.385 30.9707 46.3396 30.224L48.5476 25.968C49.2516 26.544 50.137 26.992 51.2036 27.312C52.2916 27.6533 53.3583 27.824 54.4036 27.824C56.0036 27.824 57.177 27.472 57.9236 26.768C58.6703 26.064 59.0436 25.0187 59.0436 23.632V23.056C57.8703 24.4213 56.153 25.104 53.8916 25.104C52.3556 25.104 50.937 24.7627 49.6356 24.08C48.3343 23.376 47.2996 22.3947 46.5316 21.136C45.7636 19.856 45.3796 18.384 45.3796 16.72C45.3796 15.0773 45.7636 13.6267 46.5316 12.368C47.2996 11.088 48.3343 10.1067 49.6356 9.424C50.937 8.72 52.3556 8.368 53.8916 8.368C56.3663 8.368 58.1796 9.168 59.3316 10.768V8.656H65.1236ZM55.3316 20.272C56.4196 20.272 57.3156 19.9413 58.0196 19.28C58.745 18.6187 59.1076 17.7653 59.1076 16.72C59.1076 15.6747 58.7556 14.832 58.0516 14.192C57.3476 13.5307 56.441 13.2 55.3316 13.2C54.2223 13.2 53.305 13.5307 52.5796 14.192C51.8756 14.832 51.5236 15.6747 51.5236 16.72C51.5236 17.7653 51.8863 18.6187 52.6116 19.28C53.337 19.9413 54.2436 20.272 55.3316 20.272ZM76.4221 8.368C79.3021 8.368 81.4995 9.02933 83.0141 10.352C84.5288 11.6533 85.2861 13.6587 85.2861 16.368V26H79.6221V23.76C78.7475 25.4453 77.0408 26.288 74.5021 26.288C73.1581 26.288 71.9955 26.0533 71.0141 25.584C70.0328 25.1147 69.2861 24.4853 68.7741 23.696C68.2835 22.8853 68.0381 21.968 68.0381 20.944C68.0381 19.3013 68.6675 18.032 69.9261 17.136C71.1848 16.2187 73.1261 15.76 75.7501 15.76H79.2061C79.0995 13.9253 77.8728 13.008 75.5261 13.008C74.6941 13.008 73.8515 13.1467 72.9981 13.424C72.1448 13.68 71.4195 14.0427 70.8221 14.512L68.7741 10.384C69.7341 9.744 70.8968 9.25333 72.2621 8.912C73.6488 8.54933 75.0355 8.368 76.4221 8.368ZM76.1981 22.448C76.9021 22.448 77.5208 22.2773 78.0541 21.936C78.5875 21.5947 78.9715 21.0933 79.2061 20.432V18.928H76.5821C74.8115 18.928 73.9261 19.5147 73.9261 20.688C73.9261 21.2213 74.1288 21.648 74.5341 21.968C74.9395 22.288 75.4941 22.448 76.1981 22.448ZM89.1239 2.256H95.2039V26H89.1239V2.256ZM123.764 14.32H129.364V23.6C128.084 24.5173 126.612 25.2213 124.948 25.712C123.284 26.2027 121.62 26.448 119.956 26.448C117.609 26.448 115.497 25.9573 113.62 24.976C111.742 23.9733 110.27 22.5867 109.204 20.816C108.137 19.0453 107.604 17.04 107.604 14.8C107.604 12.56 108.137 10.5547 109.204 8.784C110.27 7.01333 111.753 5.63733 113.652 4.656C115.55 3.65333 117.694 3.152 120.084 3.152C122.174 3.152 124.052 3.504 125.716 4.208C127.38 4.912 128.766 5.92533 129.876 7.248L125.844 10.896C124.329 9.232 122.516 8.4 120.404 8.4C118.484 8.4 116.937 8.98667 115.764 10.16C114.59 11.312 114.004 12.8587 114.004 14.8C114.004 16.0373 114.27 17.1467 114.804 18.128C115.337 19.088 116.084 19.8453 117.044 20.4C118.004 20.9333 119.102 21.2 120.34 21.2C121.556 21.2 122.697 20.9547 123.764 20.464V14.32ZM155.685 8.368C157.818 8.368 159.514 9.008 160.773 10.288C162.053 11.568 162.693 13.4987 162.693 16.08V26H156.613V17.072C156.613 15.856 156.378 14.96 155.909 14.384C155.461 13.808 154.821 13.52 153.989 13.52C153.071 13.52 152.335 13.84 151.781 14.48C151.226 15.12 150.949 16.0907 150.949 17.392V26H144.869V17.072C144.869 14.704 143.994 13.52 142.245 13.52C141.306 13.52 140.559 13.84 140.005 14.48C139.45 15.12 139.173 16.0907 139.173 17.392V26H133.093V8.656H138.885V10.48C139.525 9.776 140.282 9.25333 141.157 8.912C142.053 8.54933 143.023 8.368 144.069 8.368C145.285 8.368 146.373 8.592 147.333 9.04C148.293 9.488 149.071 10.1707 149.669 11.088C150.351 10.2133 151.215 9.54133 152.261 9.072C153.306 8.60267 154.447 8.368 155.685 8.368ZM177.442 8.368C179.021 8.368 180.45 8.73067 181.73 9.456C183.031 10.1813 184.055 11.2267 184.802 12.592C185.57 13.936 185.954 15.504 185.954 17.296C185.954 19.088 185.57 20.6667 184.802 22.032C184.055 23.3973 183.031 24.4533 181.73 25.2C180.45 25.9253 179.021 26.288 177.442 26.288C175.159 26.288 173.453 25.616 172.322 24.272V26H166.53V2.256H172.61V10.16C173.783 8.96533 175.394 8.368 177.442 8.368ZM176.162 21.456C177.229 21.456 178.103 21.0933 178.786 20.368C179.469 19.6213 179.81 18.5973 179.81 17.296C179.81 16.016 179.469 15.0133 178.786 14.288C178.103 13.5627 177.229 13.2 176.162 13.2C175.095 13.2 174.221 13.5627 173.538 14.288C172.855 15.0133 172.514 16.016 172.514 17.296C172.514 18.5973 172.855 19.6213 173.538 20.368C174.221 21.0933 175.095 21.456 176.162 21.456ZM210.38 3.6V26H204.044V17.264H195.404V26H189.068V3.6H195.404V12.016H204.044V3.6H210.38Z" fill="white"/>
</svg>
