<svg width="40" height="40" viewBox="0 0 40 40" fill="none" xmlns="http://www.w3.org/2000/svg">
<path opacity="0.972" fill-rule="evenodd" clip-rule="evenodd" d="M19.1797 3.2422C23.5993 3.14096 27.102 4.85971 29.6875 8.39845C30.8525 10.1486 31.5035 12.0757 31.6406 14.1797C31.6928 18.0338 31.6928 21.8881 31.6406 25.7422C31.1454 30.4471 28.7626 33.7935 24.4922 35.7813C19.7561 37.4878 15.5113 36.6806 11.7578 33.3594C9.68096 31.2493 8.52213 28.7102 8.28127 25.7422C8.22916 21.8881 8.22916 18.0338 8.28127 14.1797C8.80674 9.18017 11.3979 5.75566 16.0547 3.90626C17.0841 3.5746 18.1257 3.35324 19.1797 3.2422ZM19.0235 6.6797C23.1526 6.52304 26.0562 8.31993 27.7344 12.0703C27.9521 12.7065 28.1083 13.3575 28.2031 14.0234C28.2553 17.9557 28.2553 21.8881 28.2031 25.8203C27.6917 29.3526 25.7517 31.7094 22.3828 32.8906C18.3324 33.8397 15.1424 32.6027 12.8125 29.1797C12.2293 28.1593 11.8648 27.0656 11.7188 25.8985C11.6667 21.9401 11.6667 17.9818 11.7188 14.0234C12.1798 10.9068 13.8334 8.68025 16.6797 7.34376C17.4497 7.0474 18.231 6.82605 19.0235 6.6797Z" fill="white"/>
<path opacity="0.962" fill-rule="evenodd" clip-rule="evenodd" d="M19.4141 9.96091C20.5437 9.7763 21.2859 10.219 21.6406 11.289C21.6928 13.164 21.6928 15.039 21.6406 16.914C21.229 18.207 20.3827 18.6106 19.1016 18.125C18.6444 17.8495 18.371 17.4458 18.2813 16.914C18.2292 15.039 18.2292 13.164 18.2813 11.289C18.4507 10.6642 18.8284 10.2215 19.4141 9.96091Z" fill="white"/>
</svg>
