<svg width="46" height="46" viewBox="0 0 46 46" fill="none" xmlns="http://www.w3.org/2000/svg">
<g clip-path="url(#clip0_827_77)">
<path opacity="0.999" fill-rule="evenodd" clip-rule="evenodd" d="M25.1113 -0.0449219C23.7338 -0.0449219 22.3561 -0.0449219 20.9785 -0.0449219C12.1791 1.04542 5.84515 5.56755 1.97656 13.5215C0.964653 15.8926 0.320744 18.3483 0.0449219 20.8887C0.0449219 22.2662 0.0449219 23.6439 0.0449219 25.0215C1.13536 33.821 5.65746 40.1549 13.6113 44.0234C15.9823 45.0353 18.4381 45.6792 20.9785 45.9551C22.3561 45.9551 23.7338 45.9551 25.1113 45.9551C33.9108 44.8646 40.2448 40.3425 44.1133 32.3887C45.1252 30.0175 45.7691 27.5618 46.0449 25.0215C46.0449 23.6439 46.0449 22.2662 46.0449 20.8887C44.9546 12.0893 40.4324 5.75528 32.4785 1.88672C30.1074 0.874801 27.6517 0.230922 25.1113 -0.0449219Z" fill="white"/>
<path fill-rule="evenodd" clip-rule="evenodd" d="M23.1347 23.3144C23.0508 23.2185 23.0208 23.0987 23.0448 22.9551C23.2245 22.9551 23.4042 22.9551 23.5839 22.9551C25.2641 22.5002 25.9079 21.422 25.5155 19.7207C24.5541 18.1127 23.2514 17.7684 21.6073 18.6875C20.5858 19.7924 20.2114 21.0951 20.4843 22.5957C20.7249 24.38 21.5186 25.8624 22.8651 27.0429C23.441 27.5244 24.0999 27.7341 24.8417 27.6718C25.4646 27.3689 25.6892 26.8748 25.5155 26.1894C25.1338 25.7183 24.6696 25.3439 24.123 25.0664C23.5478 24.6198 23.2184 24.0358 23.1347 23.3144Z" fill="#0A0E15"/>
</g>
<defs>
<clipPath id="clip0_827_77">
<rect width="46" height="46" fill="white" transform="matrix(-1 0 0 1 46 0)"/>
</clipPath>
</defs>
</svg>
