<svg width="69" height="68" viewBox="0 0 69 68" fill="none" xmlns="http://www.w3.org/2000/svg">
<g clip-path="url(#clip0_896_301)">
<path opacity="0.941" fill-rule="evenodd" clip-rule="evenodd" d="M68.7393 30.082C68.7393 30.7903 68.7393 31.4987 68.7393 32.207C68.2841 32.5697 67.7529 32.7026 67.1455 32.6055C67.1677 38.0067 67.1455 43.4078 67.0791 48.8086C66.876 49.2092 66.544 49.3862 66.083 49.3398C65.5947 49.3616 65.2626 49.1402 65.0869 48.6758C65.0205 43.3192 64.9983 37.9625 65.0205 32.6055C60.2835 32.6055 55.5466 32.6055 50.8096 32.6055C50.7874 38.2281 50.8096 43.8504 50.876 49.4727C51.2744 49.8711 51.6729 50.2695 52.0713 50.668C52.1377 51.8181 52.1597 52.9692 52.1377 54.1211C52.8032 54.099 53.4673 54.1212 54.1299 54.1875C54.3671 54.2918 54.5663 54.4466 54.7275 54.6523C54.7939 56.0683 54.8161 57.485 54.7939 58.9023C58.2028 58.9023 61.6116 58.9023 65.0205 58.9023C64.9983 56.8212 65.0205 54.7404 65.0869 52.6602C65.5217 51.9645 66.1194 51.8096 66.8799 52.1953C66.963 52.2949 67.0294 52.4057 67.0791 52.5273C67.1677 56.8216 67.1677 61.1159 67.0791 65.4102C66.9179 65.6159 66.7187 65.7707 66.4814 65.875C45.32 65.9636 24.1585 65.9636 2.99707 65.875C2.75987 65.7707 2.56065 65.6159 2.39941 65.4102C2.31087 57.53 2.31087 49.6497 2.39941 41.7695C2.85369 41.2047 3.40708 41.0939 4.05957 41.4375C4.2446 41.593 4.35528 41.7922 4.3916 42.0352C4.45801 47.6574 4.48015 53.2797 4.45801 58.9023C7.86687 58.9023 11.2757 58.9023 14.6846 58.9023C14.6624 57.485 14.6846 56.0683 14.751 54.6523C14.9122 54.4466 15.1114 54.2918 15.3486 54.1875C16.0112 54.1212 16.6753 54.099 17.3408 54.1211C17.3188 52.9692 17.3408 51.8181 17.4072 50.668C17.8057 50.2695 18.2041 49.8711 18.6025 49.4727C18.6689 43.8504 18.6911 38.2281 18.6689 32.6055C13.932 32.6055 9.19499 32.6055 4.45801 32.6055C4.48013 34.3768 4.45799 36.1477 4.3916 37.918C3.76847 38.896 3.10441 38.9402 2.39941 38.0508C2.33302 36.2362 2.31088 34.4211 2.33301 32.6055C1.72572 32.7026 1.19447 32.5697 0.739258 32.207C0.739258 31.4987 0.739258 30.7903 0.739258 30.082C1.04288 27.5797 1.33064 25.0563 1.60254 22.5117C1.84255 21.7405 2.35167 21.2313 3.12988 20.9844C6.53874 20.9401 9.94759 20.8958 13.3564 20.8516C13.2046 19.9992 13.1825 19.1359 13.29 18.2617C13.3918 17.2744 13.9009 16.5881 14.8174 16.2031C15.4289 16.0622 16.0487 15.9738 16.6768 15.9375C19.156 13.9895 21.635 12.0417 24.1143 10.0937C25.4404 9.82607 25.9496 10.3352 25.6416 11.6211C23.8424 13.1106 22.0052 14.5493 20.1299 15.9375C29.8694 16.0261 39.6091 16.0261 49.3486 15.9375C44.4548 12.1844 39.5851 8.39929 34.7393 4.58203C32.8546 6.09046 30.9509 7.57354 29.0283 9.03125C27.6338 9.40755 27.1247 8.89844 27.501 7.50391C29.6482 5.79948 31.7952 4.09505 33.9424 2.39062C34.4736 2.125 35.0049 2.125 35.5361 2.39062C41.2913 6.90625 47.0466 11.4219 52.8018 15.9375C55.2629 15.8752 56.414 17.0705 56.2549 19.5234C56.2524 19.9774 56.208 20.4201 56.1221 20.8516C59.531 20.8958 62.9397 20.9401 66.3486 20.9844C67.1269 21.2313 67.636 21.7405 67.876 22.5117C68.1478 25.0563 68.4356 27.5797 68.7393 30.082ZM15.7471 18.1289C28.4086 18.1067 41.07 18.1289 53.7314 18.1953C53.9018 18.6022 53.9904 19.0449 53.9971 19.5234C53.9749 19.9441 53.9528 20.3645 53.9307 20.7852C41.1678 20.9399 28.3957 20.9621 15.6143 20.8516C15.5283 20.4201 15.484 19.9774 15.4814 19.5234C15.4927 19.0238 15.5813 18.559 15.7471 18.1289ZM3.79395 23.043C8.30957 23.043 12.8252 23.043 17.3408 23.043C17.3188 24.1949 17.3408 25.3459 17.4072 26.4961C17.8057 26.8945 18.2041 27.293 18.6025 27.6914C18.6689 28.62 18.691 29.5497 18.6689 30.4805C13.445 30.4805 8.22102 30.4805 2.99707 30.4805C3.12774 27.9792 3.39337 25.5001 3.79395 23.043ZM19.4658 23.043C21.4138 23.043 23.3616 23.043 25.3096 23.043C25.3316 23.8853 25.3096 24.7264 25.2432 25.5664C25.0439 25.7656 24.8447 25.9648 24.6455 26.1641C23.1403 26.2526 21.635 26.2526 20.1299 26.1641C19.9307 25.9648 19.7314 25.7656 19.5322 25.5664C19.4658 24.7264 19.4438 23.8853 19.4658 23.043ZM27.4346 23.043C32.3044 23.043 37.1741 23.043 42.0439 23.043C42.0219 24.1949 42.0439 25.3459 42.1104 26.4961C42.4596 26.9785 42.8581 27.4211 43.3057 27.8242C43.3942 34.9961 43.3942 42.168 43.3057 49.3398C42.8581 49.7429 42.4596 50.1856 42.1104 50.668C42.0439 51.8181 42.0219 52.9692 42.0439 54.1211C41.4241 54.1211 40.8044 54.1211 40.1846 54.1211C40.2067 50.0922 40.1846 46.0636 40.1182 42.0352C39.8962 41.3036 39.5198 40.6616 38.9893 40.1094C38.2444 39.6743 37.536 39.1873 36.8643 38.6484C35.4475 37.8516 34.031 37.8516 32.6143 38.6484C31.906 39.1355 31.1975 39.6223 30.4893 40.1094C30.0757 40.5158 29.7436 40.9806 29.4932 41.5039C29.2979 45.703 29.2315 49.9088 29.2939 54.1211C28.6741 54.1211 28.0544 54.1211 27.4346 54.1211C27.4566 52.9692 27.4346 51.8181 27.3682 50.668C27.0189 50.1856 26.6204 49.7429 26.1729 49.3398C26.0843 42.168 26.0843 34.9961 26.1729 27.8242C26.6204 27.4211 27.0189 26.9785 27.3682 26.4961C27.4346 25.3459 27.4566 24.1949 27.4346 23.043ZM44.1689 23.043C46.1169 23.043 48.0647 23.043 50.0127 23.043C50.0347 23.8853 50.0127 24.7264 49.9463 25.5664C49.7471 25.7656 49.5479 25.9648 49.3486 26.1641C47.8435 26.2526 46.3382 26.2526 44.833 26.1641C44.6338 25.9648 44.4346 25.7656 44.2354 25.5664C44.1689 24.7264 44.1469 23.8853 44.1689 23.043ZM52.1377 23.043C56.6536 23.0208 61.1692 23.043 65.6846 23.1094C66.0891 25.544 66.3547 28.001 66.4814 30.4805C61.2575 30.4805 56.0335 30.4805 50.8096 30.4805C50.7875 29.5497 50.8096 28.62 50.876 27.6914C51.2744 27.293 51.6729 26.8945 52.0713 26.4961C52.1377 25.3459 52.1597 24.1949 52.1377 23.043ZM20.7939 28.3555C21.8564 28.3555 22.9189 28.3555 23.9814 28.3555C23.9814 35.1731 23.9814 41.9909 23.9814 48.8086C22.9189 48.8086 21.8564 48.8086 20.7939 48.8086C20.7939 41.9909 20.7939 35.1731 20.7939 28.3555ZM45.4971 28.3555C46.5596 28.3555 47.6221 28.3555 48.6846 28.3555C48.6846 35.1731 48.6846 41.9909 48.6846 48.8086C47.6221 48.8086 46.5596 48.8086 45.4971 48.8086C45.4971 41.9909 45.4971 35.1731 45.4971 28.3555ZM34.3408 40.1758C34.8231 40.1306 35.2657 40.2414 35.6689 40.5078C36.2002 40.862 36.7314 41.2161 37.2627 41.5703C37.5561 41.8191 37.7995 42.1069 37.9932 42.4336C38.0596 46.3291 38.0817 50.225 38.0596 54.1211C35.846 54.1211 33.6325 54.1211 31.4189 54.1211C31.3968 50.225 31.4189 46.3291 31.4854 42.4336C31.6778 42.0197 31.9656 41.6877 32.3486 41.4375C33.0212 41.0137 33.6853 40.5931 34.3408 40.1758ZM20.1299 50.9336C21.6357 50.9114 23.141 50.9336 24.6455 51C24.8447 51.1992 25.0439 51.3984 25.2432 51.5977C25.3096 52.4377 25.3316 53.2788 25.3096 54.1211C23.3616 54.1211 21.4138 54.1211 19.4658 54.1211C19.4438 53.2788 19.4658 52.4377 19.5322 51.5977C19.7589 51.3935 19.9582 51.1721 20.1299 50.9336ZM44.833 50.9336C46.3388 50.9114 47.8441 50.9336 49.3486 51C49.5479 51.1992 49.7471 51.3984 49.9463 51.5977C50.0127 52.4377 50.0347 53.2788 50.0127 54.1211C48.0647 54.1211 46.1169 54.1211 44.1689 54.1211C44.1469 53.2788 44.1689 52.4377 44.2354 51.5977C44.4621 51.3935 44.6613 51.1721 44.833 50.9336ZM16.8096 56.2461C28.7627 56.2461 40.7158 56.2461 52.6689 56.2461C52.6689 57.1315 52.6689 58.0169 52.6689 58.9023C40.7158 58.9023 28.7627 58.9023 16.8096 58.9023C16.8096 58.0169 16.8096 57.1315 16.8096 56.2461ZM4.45801 61.1602C6.93718 61.1602 9.41634 61.1602 11.8955 61.1602C11.8955 62.0456 11.8955 62.9309 11.8955 63.8164C9.41634 63.8164 6.93718 63.8164 4.45801 63.8164C4.45801 62.9309 4.45801 62.0456 4.45801 61.1602ZM14.0205 61.1602C27.833 61.1602 41.6455 61.1602 55.458 61.1602C55.458 62.0456 55.458 62.9309 55.458 63.8164C41.6455 63.8164 27.833 63.8164 14.0205 63.8164C14.0205 62.9309 14.0205 62.0456 14.0205 61.1602ZM57.583 61.1602C60.0622 61.1602 62.5413 61.1602 65.0205 61.1602C65.0205 62.0456 65.0205 62.9309 65.0205 63.8164C62.5413 63.8164 60.0622 63.8164 57.583 63.8164C57.583 62.9309 57.583 62.0456 57.583 61.1602Z" fill="white"/>
<path opacity="0.925" fill-rule="evenodd" clip-rule="evenodd" d="M33.9424 25.168C37.4593 24.9992 39.4072 26.6593 39.7861 30.1485C39.4564 33.1345 37.7962 34.7946 34.8057 35.1289C31.7847 34.7864 30.1246 33.1041 29.8252 30.0821C30.05 27.4538 31.4225 25.8159 33.9424 25.168ZM34.3408 27.293C32.9519 27.7314 32.155 28.6833 31.9502 30.1485C32.1978 31.8127 33.1496 32.7646 34.8057 33.0039C36.4617 32.7646 37.4136 31.8127 37.6611 30.1485C37.351 28.2666 36.2443 27.3148 34.3408 27.293Z" fill="white"/>
<path opacity="0.918" fill-rule="evenodd" clip-rule="evenodd" d="M10.5675 35.3945C13.7158 35.1617 15.5973 36.5784 16.212 39.6445C16.3006 42.0794 16.3006 44.5144 16.212 46.9492C16.1661 47.2611 16.0111 47.5045 15.7472 47.6797C13.0996 47.8962 10.4433 47.9405 7.77845 47.8125C7.38076 47.7586 7.09301 47.5593 6.91517 47.2148C6.78983 44.3316 6.8341 41.454 7.04798 38.582C7.70457 36.9285 8.87774 35.866 10.5675 35.3945ZM10.966 37.5195C12.3992 37.3612 13.3953 37.9367 13.9542 39.2461C14.0206 41.3707 14.0428 43.4957 14.0206 45.6211C12.3383 45.6211 10.6561 45.6211 8.97376 45.6211C8.95164 43.5841 8.97378 41.5477 9.04017 39.5117C9.3524 38.5135 9.99432 37.8494 10.966 37.5195Z" fill="white"/>
<path opacity="0.918" fill-rule="evenodd" clip-rule="evenodd" d="M56.9187 35.3945C59.8888 35.1176 61.7702 36.4015 62.5632 39.2461C62.6518 41.9023 62.6518 44.5586 62.5632 47.2148C62.4968 47.4583 62.3418 47.6133 62.0984 47.6797C59.4508 47.8962 56.7945 47.9405 54.1296 47.8125C53.8178 47.7665 53.5743 47.6115 53.3992 47.3476C53.2491 46.0066 53.1827 44.6563 53.1999 43.2969C53.1875 41.8084 53.2539 40.3253 53.3992 38.8476C53.9432 37.0419 55.1163 35.8908 56.9187 35.3945ZM57.3171 37.5195C56.4461 37.7924 55.8485 38.3679 55.5242 39.2461C55.4578 41.3707 55.4356 43.4957 55.4578 45.6211C57.1401 45.6211 58.8223 45.6211 60.5046 45.6211C60.5651 43.4424 60.4986 41.2732 60.3054 39.1133C59.6819 37.9048 58.6858 37.3736 57.3171 37.5195Z" fill="white"/>
</g>
<defs>
<clipPath id="clip0_896_301">
<rect width="68" height="68" fill="white" transform="translate(0.805664)"/>
</clipPath>
</defs>
</svg>
