<svg width="69" height="68" viewBox="0 0 69 68" fill="none" xmlns="http://www.w3.org/2000/svg">
<g clip-path="url(#clip0_896_255)">
<path opacity="0.946" fill-rule="evenodd" clip-rule="evenodd" d="M40.5518 -0.0664062C41.3486 -0.0664062 42.1455 -0.0664062 42.9424 -0.0664062C45.0046 0.557482 46.2663 1.92987 46.7275 4.05078C46.7939 10.6027 46.8161 17.1549 46.7939 23.707C52.3722 23.6849 57.9503 23.707 63.5283 23.7734C64.6435 24.0772 65.2412 24.8076 65.3213 25.9648C65.3877 39.246 65.4099 52.5272 65.3877 65.8086C66.0974 65.7865 66.8057 65.8087 67.5127 65.875C67.7584 65.9666 67.9356 66.1215 68.0439 66.3398C68.0439 66.6941 68.0439 67.0481 68.0439 67.4023C67.9111 67.6237 67.7341 67.8008 67.5127 67.9336C45.2002 67.9336 22.8877 67.9336 0.575195 67.9336C0.353841 67.8008 0.176758 67.6237 0.0439453 67.4023C0.0439453 67.0481 0.0439453 66.6941 0.0439453 66.3398C0.152378 66.1215 0.329462 65.9666 0.575195 65.875C2.74401 65.8086 4.91329 65.7864 7.08301 65.8086C7.08301 63.2852 7.08301 60.7617 7.08301 58.2383C5.84263 58.2603 4.60305 58.2383 3.36426 58.1719C1.66243 57.6874 0.555648 56.6028 0.0439453 54.918C0.0439453 54.0769 0.0439453 53.2356 0.0439453 52.3945C1.73019 47.003 3.43462 41.6019 5.15723 36.1914C6.41945 34.4929 8.03533 34.0723 10.0049 34.9297C10.7074 35.3366 11.1722 35.9343 11.3994 36.7227C12.9695 41.7191 14.5189 46.7217 16.0479 51.7305C16.8033 54.0897 16.2499 56.0599 14.3877 57.6406C13.9661 57.8697 13.5235 58.0468 13.0596 58.1719C11.8208 58.2383 10.5812 58.2603 9.34082 58.2383C9.34082 60.7617 9.34082 63.2852 9.34082 65.8086C10.0491 65.8086 10.7575 65.8086 11.4658 65.8086C11.4104 64.1624 11.4768 62.5244 11.665 60.8945C12.3291 60.1862 12.9932 60.1862 13.6572 60.8945C13.7236 62.532 13.7458 64.17 13.7236 65.8086C15.3616 65.8086 16.9997 65.8086 18.6377 65.8086C18.6105 48.9855 18.5883 32.1627 18.5713 15.3398C19.2796 14.2773 19.988 14.2773 20.6963 15.3398C20.8332 32.1625 20.8996 48.9854 20.8955 65.8086C22.2236 65.8086 23.5518 65.8086 24.8799 65.8086C24.8577 48.1888 24.8799 30.5689 24.9463 12.9492C25.3933 12.2707 25.991 12.1157 26.7393 12.4844C26.9243 12.6399 27.035 12.8391 27.0713 13.082C27.1377 30.6575 27.1599 48.233 27.1377 65.8086C28.51 65.8086 29.8825 65.8086 31.2549 65.8086C31.2327 47.3919 31.2549 28.9752 31.3213 10.5586C31.7347 9.92092 32.2882 9.76597 32.9814 10.0938C33.2453 10.2689 33.4003 10.5124 33.4463 10.8242C33.5127 29.1523 33.5349 47.4805 33.5127 65.8086C34.2653 65.8086 35.0179 65.8086 35.7705 65.8086C35.7483 52.4388 35.7705 39.0689 35.8369 25.6992C36.021 24.6739 36.6186 24.032 37.6299 23.7734C39.9315 23.707 42.2336 23.6849 44.5361 23.707C44.5583 17.2433 44.5361 10.7798 44.4697 4.31641C43.8451 2.64406 42.672 1.95787 40.9502 2.25781C32.4944 5.3125 24.0388 8.36719 15.583 11.4219C14.4367 11.9652 13.839 12.8728 13.79 14.1445C13.7458 20.6081 13.7015 27.0716 13.6572 33.5352C12.9981 34.2274 12.334 34.2274 11.665 33.5352C11.6208 33.3581 11.5765 33.1809 11.5322 33.0039C11.4437 26.6731 11.4437 20.3425 11.5322 14.0117C11.6868 11.6452 12.86 10.0293 15.0518 9.16406C23.5778 6.11663 32.0778 3.03981 40.5518 -0.0664062ZM38.1611 25.9648C46.4713 25.9209 54.7721 25.9651 63.0635 26.0977C63.1299 39.3345 63.1521 52.5716 63.1299 65.8086C61.6247 65.8086 60.1194 65.8086 58.6143 65.8086C58.6364 62.001 58.6143 58.1938 58.5479 54.3867C58.3889 53.4743 57.8798 52.8324 57.0205 52.4609C52.7263 52.3724 48.4319 52.3724 44.1377 52.4609C43.2731 52.7487 42.764 53.3464 42.6104 54.2539C42.5439 58.1052 42.5218 61.9568 42.5439 65.8086C41.0388 65.8086 39.5335 65.8086 38.0283 65.8086C37.9844 52.518 38.0286 39.2368 38.1611 25.9648ZM7.87988 36.7227C8.52827 36.6795 8.99312 36.9451 9.27441 37.5195C10.895 42.6911 12.4888 47.8708 14.0557 53.0586C14.2796 54.3592 13.8147 55.311 12.6611 55.9141C9.65071 56.0026 6.6403 56.0026 3.62988 55.9141C2.42831 55.2125 2.00774 54.1721 2.36816 52.793C3.92676 47.5418 5.56477 42.3178 7.28223 37.1211C7.46932 36.951 7.66854 36.8181 7.87988 36.7227ZM44.9346 54.5195C46.4397 54.5195 47.945 54.5195 49.4502 54.5195C49.4502 58.2825 49.4502 62.0456 49.4502 65.8086C47.9007 65.8086 46.3513 65.8086 44.8018 65.8086C44.7586 62.0358 44.803 58.2727 44.9346 54.5195ZM51.708 54.5195C53.2461 54.4769 54.7735 54.5211 56.29 54.6523C56.3564 58.3708 56.3786 62.0896 56.3564 65.8086C54.8069 65.8086 53.2575 65.8086 51.708 65.8086C51.708 62.0456 51.708 58.2825 51.708 54.5195Z" fill="white"/>
<path opacity="0.931" fill-rule="evenodd" clip-rule="evenodd" d="M38.5596 6.83985C39.2873 6.83756 39.7079 7.19172 39.8213 7.90235C39.9099 11.931 39.9099 15.9597 39.8213 19.9883C39.4858 21.0153 38.8438 21.2588 37.8955 20.7188C37.8124 20.6192 37.746 20.5084 37.6963 20.3867C37.6077 16.0925 37.6077 11.7982 37.6963 7.50392C37.9039 7.16884 38.1917 6.94749 38.5596 6.83985Z" fill="white"/>
<path opacity="0.957" fill-rule="evenodd" clip-rule="evenodd" d="M41.7471 28.8867C43.8725 28.8646 45.9975 28.8867 48.1221 28.9531C48.3593 29.0574 48.5585 29.2123 48.7198 29.418C48.8083 31.6758 48.8083 33.9336 48.7198 36.1914C48.6091 36.3021 48.4984 36.4128 48.3877 36.5235C46.1864 36.7409 43.9728 36.7851 41.7471 36.6563C41.5099 36.552 41.3107 36.3972 41.1494 36.1914C41.0609 33.9778 41.0609 31.7644 41.1494 29.5508C41.2856 29.2603 41.4848 29.0389 41.7471 28.8867ZM43.3409 31.1446C43.3409 32.2513 43.3409 33.3581 43.3409 34.4649C44.4476 34.4649 45.5544 34.4649 46.6612 34.4649C46.6612 33.3581 46.6612 32.2513 46.6612 31.1446C45.5544 31.1446 44.4476 31.1446 43.3409 31.1446Z" fill="white"/>
<path opacity="0.943" fill-rule="evenodd" clip-rule="evenodd" d="M53.0362 28.8867C55.1616 28.8646 57.2866 28.8867 59.4112 28.9531C59.6012 29.0149 59.7561 29.1257 59.876 29.2852C60.0936 31.5309 60.1378 33.7887 60.0088 36.0586C59.9471 36.2487 59.8363 36.4035 59.6768 36.5235C57.4311 36.741 55.1733 36.7852 52.9034 36.6563C52.6077 36.4933 52.4085 36.2497 52.3057 35.9258C52.2171 33.845 52.2171 31.7644 52.3057 29.6836C52.4863 29.3485 52.7298 29.0829 53.0362 28.8867ZM54.4971 31.1446C54.4971 32.2513 54.4971 33.3581 54.4971 34.4649C55.6038 34.4649 56.7107 34.4649 57.8174 34.4649C57.8174 33.3581 57.8174 32.2513 57.8174 31.1446C56.7107 31.1446 55.6038 31.1446 54.4971 31.1446Z" fill="white"/>
<path opacity="0.956" fill-rule="evenodd" clip-rule="evenodd" d="M41.614 40.043C43.828 40.0208 46.0416 40.043 48.2546 40.1094C48.4096 40.2644 48.5645 40.4192 48.7195 40.5742C48.8081 42.7878 48.8081 45.0013 48.7195 47.2149C48.6577 47.4049 48.547 47.5598 48.3874 47.6797C46.2271 47.8951 44.0578 47.9394 41.8796 47.8125C41.6367 47.7763 41.4375 47.6655 41.282 47.4805C41.0644 45.1905 41.0202 42.8885 41.1492 40.5742C41.3319 40.4142 41.4868 40.2372 41.614 40.043ZM43.3406 42.3008C43.3406 43.4075 43.3406 44.5144 43.3406 45.6211C44.4473 45.6211 45.5542 45.6211 46.6609 45.6211C46.6609 44.5144 46.6609 43.4075 46.6609 42.3008C45.5542 42.3008 44.4473 42.3008 43.3406 42.3008Z" fill="white"/>
<path opacity="0.941" fill-rule="evenodd" clip-rule="evenodd" d="M52.9029 40.043C55.1169 40.0208 57.3305 40.043 59.5436 40.1094C59.6986 40.2644 59.8534 40.4192 60.0084 40.5742C60.097 42.7878 60.097 45.0013 60.0084 47.2149C59.8611 47.5223 59.6175 47.7215 59.2779 47.8125C57.1972 47.9011 55.1165 47.9011 53.0358 47.8125C52.7986 47.7083 52.5993 47.5534 52.4381 47.3477C52.2208 45.1907 52.1765 43.0213 52.3053 40.8399C52.4121 40.4884 52.6113 40.2228 52.9029 40.043ZM54.4967 42.3008C54.4967 43.4075 54.4967 44.5144 54.4967 45.6211C55.6034 45.6211 56.7103 45.6211 57.817 45.6211C57.817 44.5144 57.817 43.4075 57.817 42.3008C56.7103 42.3008 55.6034 42.3008 54.4967 42.3008Z" fill="white"/>
</g>
<defs>
<clipPath id="clip0_896_255">
<rect width="68" height="68" fill="white" transform="translate(0.110352)"/>
</clipPath>
</defs>
</svg>
