<svg width="69" height="68" viewBox="0 0 69 68" fill="none" xmlns="http://www.w3.org/2000/svg">
<path opacity="0.999" fill-rule="evenodd" clip-rule="evenodd" d="M4.93652 0.996093C13.7907 0.973959 22.6449 0.996093 31.499 1.0625C31.7425 1.12891 31.8975 1.28385 31.9639 1.52734C32.0303 4.89163 32.0525 8.25622 32.0303 11.6211C33.447 11.6211 34.8636 11.6211 36.2803 11.6211C36.2581 8.25622 36.2803 4.89163 36.3467 1.52734C36.4131 1.28385 36.5681 1.12891 36.8115 1.0625C45.6657 0.973958 54.5198 0.973958 63.374 1.0625C63.4957 1.1122 63.6064 1.17861 63.7061 1.26172C63.9049 20.9958 63.9713 40.7406 63.9053 60.4961C64.7918 60.474 65.6773 60.4961 66.5615 60.5625C66.805 60.6289 66.96 60.7839 67.0264 61.0273C67.115 62.7981 67.115 64.5691 67.0264 66.3398C66.96 66.5833 66.805 66.7383 66.5615 66.8047C44.9573 66.8933 23.3532 66.8933 1.74902 66.8047C1.50553 66.7383 1.35059 66.5833 1.28418 66.3398C1.19564 64.5691 1.19564 62.7981 1.28418 61.0273C1.35059 60.7839 1.50553 60.6289 1.74902 60.5625C2.63333 60.4961 3.51875 60.474 4.40527 60.4961C4.38313 40.8398 4.40527 21.1836 4.47168 1.52734C4.56328 1.28161 4.71823 1.10453 4.93652 0.996093ZM6.53027 3.12109C14.322 3.12109 22.1136 3.12109 29.9053 3.12109C29.9053 22.2461 29.9053 41.3711 29.9053 60.4961C29.197 60.4961 28.4886 60.4961 27.7803 60.4961C27.8447 56.323 27.7783 52.1616 27.5811 48.0117C27.4814 47.9286 27.3707 47.8622 27.249 47.8125C21.2282 47.7239 15.2073 47.7239 9.18652 47.8125C9.06484 47.8622 8.95415 47.9286 8.85449 48.0117C8.65728 52.1616 8.59087 56.323 8.65527 60.4961C7.94695 60.4961 7.2386 60.4961 6.53027 60.4961C6.53027 41.3711 6.53027 22.2461 6.53027 3.12109ZM38.4053 3.12109C46.197 3.12109 53.9886 3.12109 61.7803 3.12109C61.7803 22.2461 61.7803 41.3711 61.7803 60.4961C61.072 60.4961 60.3636 60.4961 59.6553 60.4961C59.7197 56.323 59.6533 52.1616 59.4561 48.0117C59.3564 47.9286 59.2457 47.8622 59.124 47.8125C53.1032 47.7239 47.0823 47.7239 41.0615 47.8125C40.9399 47.8622 40.8291 47.9286 40.7295 48.0117C40.5323 52.1616 40.4659 56.323 40.5303 60.4961C39.822 60.4961 39.1136 60.4961 38.4053 60.4961C38.4053 41.3711 38.4053 22.2461 38.4053 3.12109ZM32.0303 13.7461C33.447 13.7461 34.8636 13.7461 36.2803 13.7461C36.2803 17.2878 36.2803 20.8294 36.2803 24.3711C34.8636 24.3711 33.447 24.3711 32.0303 24.3711C32.0303 20.8294 32.0303 17.2878 32.0303 13.7461ZM32.0303 26.4961C33.447 26.4961 34.8636 26.4961 36.2803 26.4961C36.2803 30.0378 36.2803 33.5794 36.2803 37.1211C34.8636 37.1211 33.447 37.1211 32.0303 37.1211C32.0303 33.5794 32.0303 30.0378 32.0303 26.4961ZM32.0303 39.2461C33.447 39.2461 34.8636 39.2461 36.2803 39.2461C36.2803 42.7878 36.2803 46.3294 36.2803 49.8711C34.8636 49.8711 33.447 49.8711 32.0303 49.8711C32.0303 46.3294 32.0303 42.7878 32.0303 39.2461ZM10.7803 49.8711C12.9053 49.8711 15.0303 49.8711 17.1553 49.8711C17.1553 53.4128 17.1553 56.9544 17.1553 60.4961C15.0303 60.4961 12.9053 60.4961 10.7803 60.4961C10.7803 56.9544 10.7803 53.4128 10.7803 49.8711ZM19.2803 49.8711C21.4053 49.8711 23.5303 49.8711 25.6553 49.8711C25.6553 53.4128 25.6553 56.9544 25.6553 60.4961C23.5303 60.4961 21.4053 60.4961 19.2803 60.4961C19.2803 56.9544 19.2803 53.4128 19.2803 49.8711ZM42.6553 49.8711C44.7803 49.8711 46.9053 49.8711 49.0303 49.8711C49.0303 53.4128 49.0303 56.9544 49.0303 60.4961C46.9053 60.4961 44.7803 60.4961 42.6553 60.4961C42.6553 56.9544 42.6553 53.4128 42.6553 49.8711ZM51.1553 49.8711C53.2803 49.8711 55.4053 49.8711 57.5303 49.8711C57.5303 53.4128 57.5303 56.9544 57.5303 60.4961C55.4053 60.4961 53.2803 60.4961 51.1553 60.4961C51.1553 56.9544 51.1553 53.4128 51.1553 49.8711ZM32.0303 51.9961C33.447 51.9961 34.8636 51.9961 36.2803 51.9961C36.2803 54.8294 36.2803 57.6628 36.2803 60.4961C34.8636 60.4961 33.447 60.4961 32.0303 60.4961C32.0303 57.6628 32.0303 54.8294 32.0303 51.9961ZM3.34277 62.6211C23.8845 62.6211 44.4261 62.6211 64.9678 62.6211C64.9678 63.3294 64.9678 64.0378 64.9678 64.7461C44.4261 64.7461 23.8845 64.7461 3.34277 64.7461C3.34277 64.0378 3.34277 63.3294 3.34277 62.6211Z" fill="white"/>
<path opacity="0.99" fill-rule="evenodd" clip-rule="evenodd" d="M9.18653 5.24608C11.7666 5.18298 14.3342 5.24939 16.8897 5.4453C16.9728 5.54496 17.0392 5.65565 17.0889 5.77733C17.1111 6.66275 17.1331 7.54816 17.1553 8.43358C17.1729 9.42086 17.1065 10.3948 16.9561 11.3555C16.8564 11.4386 16.7457 11.505 16.624 11.5547C15.3845 11.5768 14.1448 11.5989 12.9053 11.6211C11.5646 11.6401 10.2364 11.5737 8.9209 11.4219C8.83779 11.3222 8.77138 11.2115 8.72168 11.0898C8.63314 9.319 8.63314 7.54816 8.72168 5.77733C8.81328 5.5316 8.96824 5.35451 9.18653 5.24608ZM10.7803 7.37108C10.7803 8.07941 10.7803 8.78775 10.7803 9.49608C12.1969 9.49608 13.6136 9.49608 15.0303 9.49608C15.0303 8.78775 15.0303 8.07941 15.0303 7.37108C13.6136 7.37108 12.1969 7.37108 10.7803 7.37108Z" fill="white"/>
<path opacity="0.99" fill-rule="evenodd" clip-rule="evenodd" d="M19.8116 5.24608C22.3916 5.18298 24.9592 5.24939 27.5147 5.4453C27.5978 5.54496 27.6642 5.65565 27.7139 5.77733C27.7361 6.66275 27.7581 7.54816 27.7803 8.43358C27.798 9.42086 27.7316 10.3948 27.5811 11.3555C27.4815 11.4386 27.3707 11.505 27.2491 11.5547C26.0095 11.5768 24.7698 11.5989 23.5303 11.6211C22.1896 11.6401 20.8614 11.5737 19.5459 11.4219C19.4628 11.3222 19.3964 11.2115 19.3467 11.0898C19.2581 9.319 19.2581 7.54816 19.3467 5.77733C19.4384 5.5316 19.5932 5.35451 19.8116 5.24608ZM21.4053 7.37108C21.4053 8.07941 21.4053 8.78775 21.4053 9.49608C22.822 9.49608 24.2386 9.49608 25.6553 9.49608C25.6553 8.78775 25.6553 8.07941 25.6553 7.37108C24.2386 7.37108 22.822 7.37108 21.4053 7.37108Z" fill="white"/>
<path opacity="0.99" fill-rule="evenodd" clip-rule="evenodd" d="M41.0616 5.24608C43.6416 5.18298 46.2092 5.24939 48.7647 5.4453C48.8478 5.54496 48.9142 5.65565 48.9639 5.77733C48.9861 6.66275 49.0081 7.54816 49.0303 8.43358C49.048 9.42086 48.9816 10.3948 48.8311 11.3555C48.7315 11.4386 48.6207 11.505 48.4991 11.5547C47.2595 11.5768 46.0198 11.5989 44.7803 11.6211C43.4396 11.6401 42.1114 11.5737 40.7959 11.4219C40.7128 11.3222 40.6464 11.2115 40.5967 11.0898C40.5081 9.319 40.5081 7.54816 40.5967 5.77733C40.6884 5.5316 40.8432 5.35451 41.0616 5.24608ZM42.6553 7.37108C42.6553 8.07941 42.6553 8.78775 42.6553 9.49608C44.072 9.49608 45.4886 9.49608 46.9053 9.49608C46.9053 8.78775 46.9053 8.07941 46.9053 7.37108C45.4886 7.37108 44.072 7.37108 42.6553 7.37108Z" fill="white"/>
<path opacity="0.99" fill-rule="evenodd" clip-rule="evenodd" d="M51.6866 5.24608C54.2666 5.18298 56.8342 5.24939 59.3897 5.4453C59.4728 5.54496 59.5392 5.65565 59.5889 5.77733C59.6111 6.66275 59.6331 7.54816 59.6553 8.43358C59.673 9.42086 59.6066 10.3948 59.4561 11.3555C59.3565 11.4386 59.2457 11.505 59.1241 11.5547C57.8845 11.5768 56.6448 11.5989 55.4053 11.6211C54.0646 11.6401 52.7364 11.5737 51.4209 11.4219C51.3378 11.3222 51.2714 11.2115 51.2217 11.0898C51.1331 9.319 51.1331 7.54816 51.2217 5.77733C51.3134 5.5316 51.4682 5.35451 51.6866 5.24608ZM53.2803 7.37108C53.2803 8.07941 53.2803 8.78775 53.2803 9.49608C54.697 9.49608 56.1136 9.49608 57.5303 9.49608C57.5303 8.78775 57.5303 8.07941 57.5303 7.37108C56.1136 7.37108 54.697 7.37108 53.2803 7.37108Z" fill="white"/>
<path opacity="0.99" fill-rule="evenodd" clip-rule="evenodd" d="M9.18653 15.8711C11.7666 15.808 14.3342 15.8744 16.8897 16.0703C16.9728 16.1699 17.0392 16.2807 17.0889 16.4023C17.1111 17.2878 17.1331 18.1731 17.1553 19.0586C17.1729 20.0459 17.1065 21.0198 16.9561 21.9804C16.8564 22.0636 16.7457 22.13 16.624 22.1797C15.3845 22.2018 14.1448 22.2239 12.9053 22.2461C11.5646 22.2651 10.2364 22.1987 8.9209 22.0469C8.83779 21.9472 8.77138 21.8365 8.72168 21.7148C8.63314 19.944 8.63314 18.1731 8.72168 16.4023C8.81328 16.1566 8.96824 15.9794 9.18653 15.8711ZM10.7803 17.9961C10.7803 18.7044 10.7803 19.4128 10.7803 20.1211C12.1969 20.1211 13.6136 20.1211 15.0303 20.1211C15.0303 19.4128 15.0303 18.7044 15.0303 17.9961C13.6136 17.9961 12.1969 17.9961 10.7803 17.9961Z" fill="white"/>
<path opacity="0.99" fill-rule="evenodd" clip-rule="evenodd" d="M19.8116 15.8711C22.3916 15.808 24.9592 15.8744 27.5147 16.0703C27.5978 16.1699 27.6642 16.2807 27.7139 16.4023C27.7361 17.2878 27.7581 18.1731 27.7803 19.0586C27.798 20.0459 27.7316 21.0198 27.5811 21.9804C27.4815 22.0636 27.3707 22.13 27.2491 22.1797C26.0095 22.2018 24.7698 22.2239 23.5303 22.2461C22.1896 22.2651 20.8614 22.1987 19.5459 22.0469C19.4628 21.9472 19.3964 21.8365 19.3467 21.7148C19.2581 19.944 19.2581 18.1731 19.3467 16.4023C19.4384 16.1566 19.5932 15.9794 19.8116 15.8711ZM21.4053 17.9961C21.4053 18.7044 21.4053 19.4128 21.4053 20.1211C22.822 20.1211 24.2386 20.1211 25.6553 20.1211C25.6553 19.4128 25.6553 18.7044 25.6553 17.9961C24.2386 17.9961 22.822 17.9961 21.4053 17.9961Z" fill="white"/>
<path opacity="0.99" fill-rule="evenodd" clip-rule="evenodd" d="M41.0616 15.8711C43.6416 15.808 46.2092 15.8744 48.7647 16.0703C48.8478 16.1699 48.9142 16.2807 48.9639 16.4023C48.9861 17.2878 49.0081 18.1731 49.0303 19.0586C49.048 20.0459 48.9816 21.0198 48.8311 21.9804C48.7315 22.0636 48.6207 22.13 48.4991 22.1797C47.2595 22.2018 46.0198 22.2239 44.7803 22.2461C43.4396 22.2651 42.1114 22.1987 40.7959 22.0469C40.7128 21.9472 40.6464 21.8365 40.5967 21.7148C40.5081 19.944 40.5081 18.1731 40.5967 16.4023C40.6884 16.1566 40.8432 15.9794 41.0616 15.8711ZM42.6553 17.9961C42.6553 18.7044 42.6553 19.4128 42.6553 20.1211C44.072 20.1211 45.4886 20.1211 46.9053 20.1211C46.9053 19.4128 46.9053 18.7044 46.9053 17.9961C45.4886 17.9961 44.072 17.9961 42.6553 17.9961Z" fill="white"/>
<path opacity="0.99" fill-rule="evenodd" clip-rule="evenodd" d="M51.6866 15.8711C54.2666 15.808 56.8342 15.8744 59.3897 16.0703C59.4728 16.1699 59.5392 16.2807 59.5889 16.4023C59.6111 17.2878 59.6331 18.1731 59.6553 19.0586C59.673 20.0459 59.6066 21.0198 59.4561 21.9804C59.3565 22.0636 59.2457 22.13 59.1241 22.1797C57.8845 22.2018 56.6448 22.2239 55.4053 22.2461C54.0646 22.2651 52.7364 22.1987 51.4209 22.0469C51.3378 21.9472 51.2714 21.8365 51.2217 21.7148C51.1331 19.944 51.1331 18.1731 51.2217 16.4023C51.3134 16.1566 51.4682 15.9794 51.6866 15.8711ZM53.2803 17.9961C53.2803 18.7044 53.2803 19.4128 53.2803 20.1211C54.697 20.1211 56.1136 20.1211 57.5303 20.1211C57.5303 19.4128 57.5303 18.7044 57.5303 17.9961C56.1136 17.9961 54.697 17.9961 53.2803 17.9961Z" fill="white"/>
<path opacity="0.99" fill-rule="evenodd" clip-rule="evenodd" d="M9.18653 26.4961C11.7666 26.433 14.3342 26.4994 16.8897 26.6953C16.9728 26.7949 17.0392 26.9057 17.0889 27.0273C17.1111 27.9128 17.1331 28.7981 17.1553 29.6836C17.1729 30.6709 17.1065 31.6448 16.9561 32.6054C16.8564 32.6886 16.7457 32.755 16.624 32.8047C15.3845 32.8268 14.1448 32.8489 12.9053 32.8711C11.5646 32.8901 10.2364 32.8237 8.9209 32.6719C8.83779 32.5722 8.77138 32.4615 8.72168 32.3398C8.63314 30.569 8.63314 28.7981 8.72168 27.0273C8.81328 26.7816 8.96824 26.6044 9.18653 26.4961ZM10.7803 28.6211C10.7803 29.3294 10.7803 30.0378 10.7803 30.7461C12.1969 30.7461 13.6136 30.7461 15.0303 30.7461C15.0303 30.0378 15.0303 29.3294 15.0303 28.6211C13.6136 28.6211 12.1969 28.6211 10.7803 28.6211Z" fill="white"/>
<path opacity="0.99" fill-rule="evenodd" clip-rule="evenodd" d="M19.8116 26.4961C22.3916 26.433 24.9592 26.4994 27.5147 26.6953C27.5978 26.7949 27.6642 26.9057 27.7139 27.0273C27.7361 27.9128 27.7581 28.7981 27.7803 29.6836C27.798 30.6709 27.7316 31.6448 27.5811 32.6054C27.4815 32.6886 27.3707 32.755 27.2491 32.8047C26.0095 32.8268 24.7698 32.8489 23.5303 32.8711C22.1896 32.8901 20.8614 32.8237 19.5459 32.6719C19.4628 32.5722 19.3964 32.4615 19.3467 32.3398C19.2581 30.569 19.2581 28.7981 19.3467 27.0273C19.4384 26.7816 19.5932 26.6044 19.8116 26.4961ZM21.4053 28.6211C21.4053 29.3294 21.4053 30.0378 21.4053 30.7461C22.822 30.7461 24.2386 30.7461 25.6553 30.7461C25.6553 30.0378 25.6553 29.3294 25.6553 28.6211C24.2386 28.6211 22.822 28.6211 21.4053 28.6211Z" fill="white"/>
<path opacity="0.99" fill-rule="evenodd" clip-rule="evenodd" d="M41.0616 26.4961C43.6416 26.433 46.2092 26.4994 48.7647 26.6953C48.8478 26.7949 48.9142 26.9057 48.9639 27.0273C48.9861 27.9128 49.0081 28.7981 49.0303 29.6836C49.048 30.6709 48.9816 31.6448 48.8311 32.6054C48.7315 32.6886 48.6207 32.755 48.4991 32.8047C47.2595 32.8268 46.0198 32.8489 44.7803 32.8711C43.4396 32.8901 42.1114 32.8237 40.7959 32.6719C40.7128 32.5722 40.6464 32.4615 40.5967 32.3398C40.5081 30.569 40.5081 28.7981 40.5967 27.0273C40.6884 26.7816 40.8432 26.6044 41.0616 26.4961ZM42.6553 28.6211C42.6553 29.3294 42.6553 30.0378 42.6553 30.7461C44.072 30.7461 45.4886 30.7461 46.9053 30.7461C46.9053 30.0378 46.9053 29.3294 46.9053 28.6211C45.4886 28.6211 44.072 28.6211 42.6553 28.6211Z" fill="white"/>
<path opacity="0.99" fill-rule="evenodd" clip-rule="evenodd" d="M51.6866 26.4961C54.2666 26.433 56.8342 26.4994 59.3897 26.6953C59.4728 26.7949 59.5392 26.9057 59.5889 27.0273C59.6111 27.9128 59.6331 28.7981 59.6553 29.6836C59.673 30.6709 59.6066 31.6448 59.4561 32.6054C59.3565 32.6886 59.2457 32.755 59.1241 32.8047C57.8845 32.8268 56.6448 32.8489 55.4053 32.8711C54.0646 32.8901 52.7364 32.8237 51.4209 32.6719C51.3378 32.5722 51.2714 32.4615 51.2217 32.3398C51.1331 30.569 51.1331 28.7981 51.2217 27.0273C51.3134 26.7816 51.4682 26.6044 51.6866 26.4961ZM53.2803 28.6211C53.2803 29.3294 53.2803 30.0378 53.2803 30.7461C54.697 30.7461 56.1136 30.7461 57.5303 30.7461C57.5303 30.0378 57.5303 29.3294 57.5303 28.6211C56.1136 28.6211 54.697 28.6211 53.2803 28.6211Z" fill="white"/>
<path opacity="0.99" fill-rule="evenodd" clip-rule="evenodd" d="M9.18653 37.1211C11.7666 37.058 14.3342 37.1244 16.8897 37.3203C16.9728 37.4199 17.0392 37.5307 17.0889 37.6523C17.1111 38.5378 17.1331 39.4231 17.1553 40.3086C17.1729 41.2959 17.1065 42.2698 16.9561 43.2304C16.8564 43.3136 16.7457 43.38 16.624 43.4297C15.3845 43.4518 14.1448 43.4739 12.9053 43.4961C11.5646 43.5151 10.2364 43.4487 8.9209 43.2969C8.83779 43.1972 8.77138 43.0865 8.72168 42.9648C8.63314 41.194 8.63314 39.4231 8.72168 37.6523C8.81328 37.4066 8.96824 37.2294 9.18653 37.1211ZM10.7803 39.2461C10.7803 39.9544 10.7803 40.6628 10.7803 41.3711C12.1969 41.3711 13.6136 41.3711 15.0303 41.3711C15.0303 40.6628 15.0303 39.9544 15.0303 39.2461C13.6136 39.2461 12.1969 39.2461 10.7803 39.2461Z" fill="white"/>
<path opacity="0.99" fill-rule="evenodd" clip-rule="evenodd" d="M19.8116 37.1211C22.3916 37.058 24.9592 37.1244 27.5147 37.3203C27.5978 37.4199 27.6642 37.5307 27.7139 37.6523C27.7361 38.5378 27.7581 39.4231 27.7803 40.3086C27.798 41.2959 27.7316 42.2698 27.5811 43.2304C27.4815 43.3136 27.3707 43.38 27.2491 43.4297C26.0095 43.4518 24.7698 43.4739 23.5303 43.4961C22.1896 43.5151 20.8614 43.4487 19.5459 43.2969C19.4628 43.1972 19.3964 43.0865 19.3467 42.9648C19.2581 41.194 19.2581 39.4231 19.3467 37.6523C19.4384 37.4066 19.5932 37.2294 19.8116 37.1211ZM21.4053 39.2461C21.4053 39.9544 21.4053 40.6628 21.4053 41.3711C22.822 41.3711 24.2386 41.3711 25.6553 41.3711C25.6553 40.6628 25.6553 39.9544 25.6553 39.2461C24.2386 39.2461 22.822 39.2461 21.4053 39.2461Z" fill="white"/>
<path opacity="0.99" fill-rule="evenodd" clip-rule="evenodd" d="M41.0616 37.1211C43.6416 37.058 46.2092 37.1244 48.7647 37.3203C48.8478 37.4199 48.9142 37.5307 48.9639 37.6523C48.9861 38.5378 49.0081 39.4231 49.0303 40.3086C49.048 41.2959 48.9816 42.2698 48.8311 43.2304C48.7315 43.3136 48.6207 43.38 48.4991 43.4297C47.2595 43.4518 46.0198 43.4739 44.7803 43.4961C43.4396 43.5151 42.1114 43.4487 40.7959 43.2969C40.7128 43.1972 40.6464 43.0865 40.5967 42.9648C40.5081 41.194 40.5081 39.4231 40.5967 37.6523C40.6884 37.4066 40.8432 37.2294 41.0616 37.1211ZM42.6553 39.2461C42.6553 39.9544 42.6553 40.6628 42.6553 41.3711C44.072 41.3711 45.4886 41.3711 46.9053 41.3711C46.9053 40.6628 46.9053 39.9544 46.9053 39.2461C45.4886 39.2461 44.072 39.2461 42.6553 39.2461Z" fill="white"/>
<path opacity="0.99" fill-rule="evenodd" clip-rule="evenodd" d="M51.6866 37.1211C54.2666 37.058 56.8342 37.1244 59.3897 37.3203C59.4728 37.4199 59.5392 37.5307 59.5889 37.6523C59.6111 38.5378 59.6331 39.4231 59.6553 40.3086C59.673 41.2959 59.6066 42.2698 59.4561 43.2304C59.3565 43.3136 59.2457 43.38 59.1241 43.4297C57.8845 43.4518 56.6448 43.4739 55.4053 43.4961C54.0646 43.5151 52.7364 43.4487 51.4209 43.2969C51.3378 43.1972 51.2714 43.0865 51.2217 42.9648C51.1331 41.194 51.1331 39.4231 51.2217 37.6523C51.3134 37.4066 51.4682 37.2294 51.6866 37.1211ZM53.2803 39.2461C53.2803 39.9544 53.2803 40.6628 53.2803 41.3711C54.697 41.3711 56.1136 41.3711 57.5303 41.3711C57.5303 40.6628 57.5303 39.9544 57.5303 39.2461C56.1136 39.2461 54.697 39.2461 53.2803 39.2461Z" fill="white"/>
</svg>
