<svg width="69" height="68" viewBox="0 0 69 68" fill="none" xmlns="http://www.w3.org/2000/svg">
<path opacity="0.947" fill-rule="evenodd" clip-rule="evenodd" d="M7.21094 5.51172C21.2523 5.44618 35.2862 5.51259 49.3125 5.71094C49.5764 5.88611 49.7314 6.12961 49.7773 6.44141C49.8659 15.9597 49.8659 25.4778 49.7773 34.9961C49.4015 35.7854 48.8038 36.0288 47.9844 35.7266C47.7787 35.5653 47.6238 35.3661 47.5195 35.1289C47.4531 26.0534 47.431 16.978 47.4531 7.90235C34.5703 7.90235 21.6875 7.90235 8.80469 7.90235C8.80469 25.2566 8.80469 42.6106 8.80469 59.9648C17.3048 59.9427 25.8048 59.9648 34.3047 60.0312C34.9832 60.4783 35.1382 61.076 34.7695 61.8242C34.6083 62.0299 34.4091 62.1848 34.1719 62.2891C25.1849 62.3777 16.198 62.3777 7.21094 62.2891C6.8713 62.1981 6.62781 61.9989 6.48047 61.6914C6.39193 43.1862 6.39193 24.6809 6.48047 6.17579C6.65998 5.87709 6.90347 5.65574 7.21094 5.51172Z" fill="white"/>
<path opacity="0.943" fill-rule="evenodd" clip-rule="evenodd" d="M15.0469 15.207C23.7241 15.1848 32.4013 15.207 41.0782 15.2734C41.9727 15.6768 42.1941 16.3188 41.7422 17.1992C41.6094 17.3098 41.4766 17.4206 41.3438 17.5312C32.4896 17.6198 23.6355 17.6198 14.7813 17.5312C14.273 17.0919 14.118 16.5386 14.3165 15.8711C14.496 15.5724 14.7395 15.351 15.0469 15.207Z" fill="white"/>
<path opacity="0.943" fill-rule="evenodd" clip-rule="evenodd" d="M15.0469 23.9726C23.7241 23.9505 32.4013 23.9726 41.0782 24.0391C41.917 24.3853 42.1606 24.9829 41.8086 25.832C41.6536 25.987 41.4988 26.1419 41.3438 26.2969C32.5339 26.3854 23.724 26.3854 14.9141 26.2969C14.4177 26.1111 14.1964 25.7568 14.25 25.2344C14.2013 24.5989 14.4669 24.1782 15.0469 23.9726Z" fill="white"/>
<path opacity="0.942" fill-rule="evenodd" clip-rule="evenodd" d="M14.9139 32.7383C23.6797 32.7161 32.4453 32.7383 41.2108 32.8047C41.9901 33.2084 42.1894 33.8061 41.8084 34.5976C41.6472 34.8034 41.448 34.9582 41.2108 35.0625C32.4452 35.1511 23.6795 35.1511 14.9139 35.0625C14.4379 34.8415 14.2165 34.4652 14.2499 33.9336C14.2335 33.3897 14.4549 32.9913 14.9139 32.7383Z" fill="white"/>
<path opacity="0.956" fill-rule="evenodd" clip-rule="evenodd" d="M38.6876 38.0508C44.6643 38.0286 50.6409 38.0508 56.6173 38.1172C57.3372 38.3546 57.8462 38.8195 58.1447 39.5117C58.3299 40.8311 58.3963 42.1592 58.3439 43.4961C59.8805 43.2569 60.9652 43.8324 61.5978 45.2226C61.6864 46.6836 61.6864 48.1445 61.5978 49.6055C61.3134 50.4211 60.7601 50.9744 59.9376 51.2656C58.6545 51.332 57.3706 51.3541 56.0861 51.332C56.0861 52.3945 56.0861 53.457 56.0861 54.5195C57.3008 54.651 58.0312 55.3151 58.2775 56.5117C58.3661 57.7512 58.3661 58.9909 58.2775 60.2305C58.0488 61.3004 57.4067 61.9866 56.3517 62.2891C50.5522 62.3776 44.7528 62.3776 38.9532 62.2891C38.1111 62.0666 37.5134 61.5575 37.1603 60.7617C36.9713 59.4442 36.9049 58.1161 36.9611 56.7773C35.9887 56.7002 35.3026 56.2131 34.9025 55.3164C34.69 53.8208 34.6457 52.3156 34.7697 50.8008C35.0494 50.0342 35.5584 49.4809 36.297 49.1406C37.6164 48.9553 38.9445 48.8889 40.2814 48.9414C40.2397 47.9337 40.2839 46.9377 40.4142 45.9531C38.8057 46.1128 37.6768 45.4709 37.0275 44.0273C36.9389 42.655 36.9389 41.2825 37.0275 39.9101C37.2833 39.013 37.8367 38.3932 38.6876 38.0508ZM39.3517 40.4414C40.06 40.4414 40.7684 40.4414 41.4767 40.4414C41.4767 41.4597 41.4767 42.4778 41.4767 43.4961C40.7778 43.5366 40.0917 43.4922 39.4181 43.3633C39.3517 42.3903 39.3296 41.4164 39.3517 40.4414ZM43.8673 40.4414C44.7084 40.4414 45.5496 40.4414 46.3907 40.4414C46.3907 41.4597 46.3907 42.4778 46.3907 43.4961C45.5496 43.4961 44.7084 43.4961 43.8673 43.4961C43.8673 42.4778 43.8673 41.4597 43.8673 40.4414ZM48.7814 40.4414C49.6668 40.4414 50.5522 40.4414 51.4376 40.4414C51.4376 41.4597 51.4376 42.4778 51.4376 43.4961C50.5522 43.4961 49.6668 43.4961 48.7814 43.4961C48.7814 42.4778 48.7814 41.4597 48.7814 40.4414ZM53.8282 40.4414C54.5365 40.4414 55.245 40.4414 55.9532 40.4414C55.9753 41.4164 55.9532 42.3903 55.8868 43.3633C55.2132 43.4922 54.5271 43.5366 53.8282 43.4961C53.8282 42.4778 53.8282 41.4597 53.8282 40.4414ZM42.8048 45.8867C43.5131 45.8867 44.2215 45.8867 44.9298 45.8867C44.9298 46.905 44.9298 47.9231 44.9298 48.9414C44.2215 48.9414 43.5131 48.9414 42.8048 48.9414C42.8048 47.9231 42.8048 46.905 42.8048 45.8867ZM47.3204 45.8867C48.1615 45.8867 49.0028 45.8867 49.8439 45.8867C49.8439 46.905 49.8439 47.9231 49.8439 48.9414C49.0028 48.9414 48.1615 48.9414 47.3204 48.9414C47.3204 47.9231 47.3204 46.905 47.3204 45.8867ZM52.2345 45.8867C53.0756 45.8867 53.9168 45.8867 54.7579 45.8867C54.7579 46.905 54.7579 47.9231 54.7579 48.9414C53.9168 48.9414 53.0756 48.9414 52.2345 48.9414C52.2345 47.9231 52.2345 46.905 52.2345 45.8867ZM57.1486 45.8867C57.8569 45.8867 58.5653 45.8867 59.2736 45.8867C59.2736 46.905 59.2736 47.9231 59.2736 48.9414C58.5653 48.9414 57.8569 48.9414 57.1486 48.9414C57.1486 47.9231 57.1486 46.905 57.1486 45.8867ZM37.2267 51.332C37.8907 51.332 38.5548 51.332 39.2189 51.332C39.2189 52.3503 39.2189 53.3684 39.2189 54.3867C38.5106 54.3867 37.8022 54.3867 37.0939 54.3867C37.0542 53.357 37.0984 52.3387 37.2267 51.332ZM41.6095 51.332C42.4506 51.332 43.2918 51.332 44.1329 51.332C44.1329 52.3503 44.1329 53.3684 44.1329 54.3867C43.2918 54.3867 42.4506 54.3867 41.6095 54.3867C41.6095 53.3684 41.6095 52.3503 41.6095 51.332ZM46.5236 51.332C47.409 51.332 48.2944 51.332 49.1798 51.332C49.1798 52.3503 49.1798 53.3684 49.1798 54.3867C48.2944 54.3867 47.409 54.3867 46.5236 54.3867C46.5236 53.3684 46.5236 52.3503 46.5236 51.332ZM51.5704 51.332C52.2693 51.2915 52.9554 51.3359 53.629 51.4648C53.6954 52.4378 53.7175 53.4117 53.6954 54.3867C52.9871 54.3867 52.2787 54.3867 51.5704 54.3867C51.5704 53.3684 51.5704 52.3503 51.5704 51.332ZM39.6173 56.7773C40.2371 56.7773 40.8569 56.7773 41.4767 56.7773C41.4767 57.8398 41.4767 58.9023 41.4767 59.9648C40.7778 60.0053 40.0917 59.961 39.4181 59.832C39.2749 58.7782 39.3413 57.7599 39.6173 56.7773ZM43.8673 56.7773C44.7084 56.7773 45.5496 56.7773 46.3907 56.7773C46.3907 57.8398 46.3907 58.9023 46.3907 59.9648C45.5496 59.9648 44.7084 59.9648 43.8673 59.9648C43.8673 58.9023 43.8673 57.8398 43.8673 56.7773ZM48.7814 56.7773C49.6668 56.7773 50.5522 56.7773 51.4376 56.7773C51.4376 57.8398 51.4376 58.9023 51.4376 59.9648C50.5522 59.9648 49.6668 59.9648 48.7814 59.9648C48.7814 58.9023 48.7814 57.8398 48.7814 56.7773ZM53.8282 56.7773C54.5009 56.74 55.165 56.7842 55.8204 56.9101C55.9948 57.9139 55.9948 58.91 55.8204 59.8984C55.1578 59.9647 54.4938 59.9869 53.8282 59.9648C53.8282 58.9023 53.8282 57.8398 53.8282 56.7773Z" fill="white"/>
<path opacity="0.94" fill-rule="evenodd" clip-rule="evenodd" d="M14.9143 41.5039C20.5369 41.4817 26.1593 41.5039 31.7815 41.5703C32.4373 42.0253 32.5923 42.623 32.2463 43.3633C32.0851 43.569 31.8859 43.7239 31.6487 43.8281C26.1148 43.9167 20.581 43.9167 15.0471 43.8281C14.4512 43.6555 14.1855 43.257 14.2502 42.6328C14.2247 42.1062 14.4461 41.7298 14.9143 41.5039Z" fill="white"/>
<path opacity="0.939" fill-rule="evenodd" clip-rule="evenodd" d="M14.7811 50.2695C20.4479 50.2473 26.1147 50.2695 31.7811 50.3359C32.4596 50.783 32.6146 51.3806 32.2459 52.1289C32.0708 52.3928 31.8273 52.5478 31.5155 52.5937C26.0259 52.6823 20.5363 52.6823 15.0467 52.5937C14.7071 52.5028 14.4635 52.3035 14.3163 51.9961C14.1222 51.3089 14.2772 50.7334 14.7811 50.2695Z" fill="white"/>
</svg>
