<svg width="69" height="68" viewBox="0 0 69 68" fill="none" xmlns="http://www.w3.org/2000/svg">
<g clip-path="url(#clip0_865_960)">
<path opacity="0.935" fill-rule="evenodd" clip-rule="evenodd" d="M68.4604 55.7148C68.4604 57.4414 68.4604 59.168 68.4604 60.8945C68.2118 61.2968 67.8576 61.5845 67.3979 61.7578C64.1665 61.8242 60.9348 61.8464 57.7026 61.8242C57.764 63.5639 57.6976 65.2905 57.5034 67.0039C57.2547 67.2973 56.9669 67.5407 56.6401 67.7344C54.9578 67.823 53.2756 67.823 51.5933 67.7344C51.1368 67.5876 50.8048 67.2998 50.5972 66.8711C50.4058 65.1987 50.3394 63.5164 50.3979 61.8242C48.4943 61.8242 46.5906 61.8242 44.687 61.8242C44.7092 63.3743 44.687 64.9238 44.6206 66.4726C44.4788 67.1015 44.1025 67.5221 43.4917 67.7344C41.8094 67.823 40.1272 67.823 38.4448 67.7344C38.1181 67.5407 37.8303 67.2973 37.5815 67.0039C37.3899 65.2872 37.3235 63.5606 37.3823 61.8242C35.4344 61.8242 33.4865 61.8242 31.5386 61.8242C31.5974 63.5606 31.531 65.2872 31.3394 67.0039C31.0906 67.2973 30.8028 67.5407 30.4761 67.7344C28.7937 67.823 27.1115 67.823 25.4292 67.7344C24.8184 67.5221 24.4421 67.1015 24.3003 66.4726C24.2339 64.9238 24.2117 63.3743 24.2339 61.8242C22.3303 61.8242 20.4265 61.8242 18.5229 61.8242C18.5815 63.5164 18.5151 65.1987 18.3237 66.8711C18.1161 67.2998 17.7841 67.5876 17.3276 67.7344C15.6453 67.823 13.9631 67.823 12.2808 67.7344C11.954 67.5407 11.6663 67.2973 11.4175 67.0039C11.2233 65.2905 11.1569 63.5639 11.2183 61.8242C7.98619 61.8464 4.75442 61.8242 1.52295 61.7578C1.06324 61.5845 0.70907 61.2968 0.460449 60.8945C0.460449 59.168 0.460449 57.4414 0.460449 55.7148C0.700712 55.3643 1.01061 55.0765 1.39014 54.8516C2.18579 54.7853 2.98266 54.7631 3.78076 54.7852C3.80277 54.2079 3.78063 53.6325 3.71436 53.0586C3.02441 52.7137 2.40461 52.271 1.85498 51.7305C1.23519 50.7565 1.23519 49.7825 1.85498 48.8086C5.784 42.6774 9.67984 36.5237 13.5425 30.3477C14.0011 29.9135 14.5102 29.8471 15.0698 30.1484C15.5776 30.7189 15.5996 31.3165 15.1362 31.9414C11.2363 38.033 7.36261 44.1424 3.51514 50.2695C4.05178 50.6826 4.60517 51.081 5.17529 51.4648C14.6382 36.5681 24.0679 21.6487 33.4644 6.70703C34.0826 5.87662 34.7467 5.83234 35.4565 6.57421C44.7881 21.5646 54.2178 36.4839 63.7456 51.332C64.2965 51.0566 64.8278 50.7467 65.3394 50.4023C65.1978 49.942 64.9764 49.4993 64.6753 49.0742C55.5223 34.6201 46.4025 20.1435 37.3159 5.64453C36.5904 4.48101 35.8157 3.3521 34.9917 2.25781C34.538 2.13917 34.1174 2.20557 33.73 2.45703C28.3897 11.0354 22.9666 19.5574 17.4604 28.0234C16.5204 28.4142 15.9448 28.1042 15.7339 27.0937C21.1024 18.4048 26.5256 9.74987 32.0034 1.1289C33.073 0.0655477 34.3347 -0.222213 35.7886 0.265619C36.3303 0.54122 36.7952 0.917522 37.1831 1.39453C47.1108 17.2217 57.0718 33.0263 67.0659 48.8086C67.6858 49.7825 67.6858 50.7565 67.0659 51.7305C66.5163 52.271 65.8965 52.7137 65.2065 53.0586C65.1403 53.6325 65.1181 54.2079 65.1401 54.7852C65.9382 54.7631 66.7351 54.7853 67.5308 54.8516C67.9103 55.0765 68.2202 55.3643 68.4604 55.7148ZM33.2651 10.957C33.4197 15.406 33.4419 19.8772 33.3315 24.3711C31.6233 22.6185 29.8746 20.914 28.0854 19.2578C29.8979 16.5391 31.6245 13.7723 33.2651 10.957ZM35.5229 10.957C37.3644 13.6652 39.1352 16.4321 40.8354 19.2578C39.1292 20.9862 37.4026 22.6906 35.6558 24.3711C35.5229 19.9006 35.4787 15.4292 35.5229 10.957ZM26.8901 21.1836C28.6301 22.7241 30.3124 24.34 31.937 26.0312C29.2365 26.1198 26.5359 26.1198 23.8354 26.0312C24.8384 24.4004 25.8567 22.7845 26.8901 21.1836ZM41.8979 21.1836C43.0201 22.7143 44.0826 24.308 45.0854 25.9648C42.4303 26.1197 39.774 26.1419 37.1167 26.0312C38.7373 24.4328 40.331 22.8169 41.8979 21.1836ZM22.3745 28.2227C30.432 28.2005 38.4892 28.2227 46.5464 28.2891C51.6597 36.4128 56.7729 44.5364 61.8862 52.6602C62.1691 53.0227 62.5233 53.2884 62.9487 53.457C63.0149 53.8976 63.0371 54.3402 63.0151 54.7852C59.7388 54.763 56.4627 54.7852 53.187 54.8516C52.5356 55.405 52.4913 56.0026 53.0542 56.6445C53.2262 56.7239 53.4032 56.7904 53.5854 56.8437C57.8795 56.9102 62.1738 56.9323 66.4683 56.9102C66.4683 57.8398 66.4683 58.7695 66.4683 59.6992C45.1297 59.6992 23.7912 59.6992 2.45264 59.6992C2.45264 58.7695 2.45264 57.8398 2.45264 56.9102C18.2573 56.9323 34.062 56.9102 49.8667 56.8437C50.9174 56.3716 51.0502 55.7075 50.2651 54.8516C47.2551 54.7852 44.2446 54.763 41.2339 54.7852C41.2979 47.7842 41.2315 40.7894 41.0347 33.8008C40.8271 33.3721 40.4951 33.0843 40.0386 32.9375C36.3198 32.8489 32.6011 32.8489 28.8823 32.9375C28.4258 33.0843 28.0938 33.3721 27.8862 33.8008C27.6894 40.7894 27.623 47.7842 27.687 54.7852C20.4265 54.7852 13.1662 54.7852 5.90576 54.7852C5.88385 54.3402 5.90599 53.8976 5.97217 53.457C6.6805 53.1028 7.21175 52.5716 7.56592 51.8633C12.5382 43.998 17.4744 36.1178 22.3745 28.2227ZM29.812 34.9961C32.9109 34.9961 36.01 34.9961 39.1089 34.9961C39.1089 35.793 39.1089 36.5898 39.1089 37.3867C36.01 37.3867 32.9109 37.3867 29.812 37.3867C29.812 36.5898 29.812 35.793 29.812 34.9961ZM29.812 39.5117C32.9109 39.5117 36.01 39.5117 39.1089 39.5117C39.1089 40.6628 39.1089 41.8138 39.1089 42.9648C36.01 42.9648 32.9109 42.9648 29.812 42.9648C29.812 41.8138 29.812 40.6628 29.812 39.5117ZM17.5933 44.957C19.2312 44.957 20.8693 44.957 22.5073 44.957C22.5073 46.595 22.5073 48.2331 22.5073 49.8711C20.8693 49.8711 19.2312 49.8711 17.5933 49.8711C17.5933 48.2331 17.5933 46.595 17.5933 44.957ZM46.6792 44.957C48.2729 44.957 49.8667 44.957 51.4604 44.957C51.4604 46.595 51.4604 48.2331 51.4604 49.8711C49.8667 49.8711 48.2729 49.8711 46.6792 49.8711C46.6792 48.2331 46.6792 46.595 46.6792 44.957ZM29.812 45.0898C32.9109 45.0898 36.01 45.0898 39.1089 45.0898C39.1089 46.2852 39.1089 47.4805 39.1089 48.6758C36.01 48.6758 32.9109 48.6758 29.812 48.6758C29.812 47.4805 29.812 46.2852 29.812 45.0898ZM29.812 50.668C32.9109 50.668 36.01 50.668 39.1089 50.668C39.1089 52.0403 39.1089 53.4128 39.1089 54.7852C36.01 54.7852 32.9109 54.7852 29.812 54.7852C29.812 53.4128 29.812 52.0403 29.812 50.668ZM13.3433 61.8242C14.3615 61.8242 15.3797 61.8242 16.3979 61.8242C16.3979 63.1523 16.3979 64.4805 16.3979 65.8086C15.3797 65.8086 14.3615 65.8086 13.3433 65.8086C13.3433 64.4805 13.3433 63.1523 13.3433 61.8242ZM26.3589 61.8242C27.3772 61.8242 28.3953 61.8242 29.4136 61.8242C29.4136 63.1523 29.4136 64.4805 29.4136 65.8086C28.3953 65.8086 27.3772 65.8086 26.3589 65.8086C26.3589 64.4805 26.3589 63.1523 26.3589 61.8242ZM39.5073 61.8242C40.5256 61.8242 41.5437 61.8242 42.562 61.8242C42.562 63.1523 42.562 64.4805 42.562 65.8086C41.5437 65.8086 40.5256 65.8086 39.5073 65.8086C39.5073 64.4805 39.5073 63.1523 39.5073 61.8242ZM52.5229 61.8242C53.5412 61.8242 54.5594 61.8242 55.5776 61.8242C55.5776 63.1523 55.5776 64.4805 55.5776 65.8086C54.5594 65.8086 53.5412 65.8086 52.5229 65.8086C52.5229 64.4805 52.5229 63.1523 52.5229 61.8242Z" fill="white"/>
</g>
<defs>
<clipPath id="clip0_865_960">
<rect width="68" height="68" fill="white" transform="translate(0.526855)"/>
</clipPath>
</defs>
</svg>
