<svg width="68" height="68" viewBox="0 0 68 68" fill="none" xmlns="http://www.w3.org/2000/svg">
<g clip-path="url(#clip0_866_982)">
<path opacity="0.942" fill-rule="evenodd" clip-rule="evenodd" d="M67.9336 31.9414C67.9336 32.4284 67.9336 32.9153 67.9336 33.4023C67.6078 34.1429 67.0323 34.5634 66.207 34.6641C64.304 34.7305 62.4002 34.7527 60.4961 34.7305C60.5183 36.5904 60.4961 38.4498 60.4297 40.3086C59.5737 41.0937 58.9096 40.9608 58.4375 39.9102C58.3711 38.1841 58.3489 36.4576 58.3711 34.7305C49.3398 34.7305 40.3086 34.7305 31.2773 34.7305C31.2773 43.4961 31.2773 52.2617 31.2773 61.0273C40.3086 61.0273 49.3398 61.0273 58.3711 61.0273C58.3489 55.2277 58.3711 49.4282 58.4375 43.6289C58.6321 42.8117 59.1411 42.5239 59.9648 42.7656C60.1198 42.9206 60.2747 43.0755 60.4297 43.2305C60.5183 49.3841 60.5183 55.5378 60.4297 61.6914C60.1934 62.2375 59.8172 62.658 59.3008 62.9531C45.3601 63.1731 31.4148 63.2173 17.4648 63.0859C16.6558 62.7839 16.4122 62.2305 16.7344 61.4258C16.8543 61.2663 17.0092 61.1555 17.1992 61.0938C21.1833 61.0273 25.1677 61.0052 29.1523 61.0273C29.1523 60.1419 29.1523 59.2566 29.1523 58.3711C22.6003 58.3711 16.0481 58.3711 9.49609 58.3711C9.49609 59.2566 9.49609 60.1419 9.49609 61.0273C11.0462 61.0052 12.5957 61.0273 14.1445 61.0938C14.7094 61.548 14.8201 62.1014 14.4766 62.7539C14.2881 62.8814 14.0889 62.992 13.8789 63.0859C12.3294 63.1745 10.78 63.1745 9.23047 63.0859C8.36542 62.9744 7.76777 62.5095 7.4375 61.6914C7.37109 52.7045 7.34895 43.7175 7.37109 34.7305C5.46693 34.7527 3.56329 34.7305 1.66016 34.6641C0.834885 34.5634 0.259363 34.1429 -0.0664062 33.4023C-0.0664062 32.9153 -0.0664062 32.4284 -0.0664062 31.9414C2.35571 25.8063 4.76847 19.6525 7.17188 13.4805C7.46692 12.9641 7.8875 12.5878 8.43359 12.3516C20.2095 12.2852 31.9856 12.263 43.7617 12.2852C43.7617 11.6654 43.7617 11.0456 43.7617 10.4258C42.8841 10.6097 42.1979 10.344 41.7031 9.62891C41.6145 8.25652 41.6145 6.88411 41.7031 5.51172C41.8059 5.18775 42.0051 4.94425 42.3008 4.78125C46.3294 4.69271 50.3581 4.69271 54.3867 4.78125C54.6302 4.93621 54.8294 5.13542 54.9844 5.37891C55.073 6.79558 55.073 8.21224 54.9844 9.62891C54.8801 9.86611 54.7253 10.0653 54.5195 10.2266C54.0022 10.3947 53.471 10.4611 52.9258 10.4258C52.9258 11.0456 52.9258 11.6654 52.9258 12.2852C55.0955 12.263 57.2648 12.2852 59.4336 12.3516C59.7942 12.4681 60.1042 12.6673 60.3633 12.9492C62.9283 19.2728 65.4517 25.6035 67.9336 31.9414ZM43.7617 6.70703C46.8606 6.70703 49.9597 6.70703 53.0586 6.70703C53.0586 7.23828 53.0586 7.76953 53.0586 8.30078C49.9597 8.30078 46.8606 8.30078 43.7617 8.30078C43.7617 7.76953 43.7617 7.23828 43.7617 6.70703ZM45.8867 10.4258C47.5247 10.4258 49.1628 10.4258 50.8008 10.4258C50.8008 11.0456 50.8008 11.6654 50.8008 12.2852C49.1628 12.2852 47.5247 12.2852 45.8867 12.2852C45.8867 11.6654 45.8867 11.0456 45.8867 10.4258ZM9.09766 14.4102C11.0034 14.3659 12.907 14.4103 14.8086 14.543C14.4359 15.7238 14.1261 16.9191 13.8789 18.1289C11.7977 18.1511 9.71697 18.1289 7.63672 18.0625C8.14259 16.8517 8.62956 15.6343 9.09766 14.4102ZM17.0664 14.4102C17.2878 14.4102 17.5091 14.4102 17.7305 14.4102C17.7305 15.6497 17.7305 16.8894 17.7305 18.1289C17.1533 18.151 16.5778 18.1288 16.0039 18.0625C16.3686 16.8473 16.7227 15.6298 17.0664 14.4102ZM19.8555 14.4102C32.8271 14.3659 45.7985 14.4102 58.7695 14.543C61.142 20.509 63.4882 26.4856 65.8086 32.4727C60.6953 32.5169 55.582 32.5612 50.4688 32.6055C45.215 32.6265 39.9689 32.5601 34.7305 32.4063C34.3018 32.1987 34.0139 31.8666 33.8672 31.4102C32.9015 28.2476 31.8832 25.1044 30.8125 21.9805C30.4528 21.5018 29.988 21.1698 29.418 20.9844C26.6731 20.9402 23.9284 20.8958 21.1836 20.8516C20.6246 20.6939 20.204 20.3619 19.9219 19.8555C19.8555 18.0409 19.8333 16.2258 19.8555 14.4102ZM6.83984 20.2539C8.96669 20.2097 11.0917 20.254 13.2148 20.3867C12.7746 21.8822 12.3761 23.3874 12.0195 24.9023C9.71745 24.9023 7.41536 24.9023 5.11328 24.9023C5.65134 23.3391 6.22686 21.7898 6.83984 20.2539ZM15.4727 20.2539C16.2695 20.2539 17.0664 20.2539 17.8633 20.2539C18.3487 21.8674 19.4334 22.7971 21.1172 23.043C21.1488 23.6204 21.1046 24.1959 20.9844 24.7695C18.759 24.9013 16.5233 24.9455 14.2773 24.9023C14.6139 23.3346 15.0123 21.7851 15.4727 20.2539ZM23.4414 23.043C25.2571 23.0208 27.0721 23.043 28.8867 23.1094C30.0225 26.2294 31.0408 29.3947 31.9414 32.6055C28.6211 32.6055 25.3008 32.6055 21.9805 32.6055C22.2173 30.742 22.4829 28.8826 22.7773 27.0273C24.1947 27.0495 25.6114 27.0273 27.0273 26.9609C27.7788 26.718 28.0224 26.2088 27.7578 25.4336C27.6914 25.1902 27.5364 25.0352 27.293 24.9688C25.9213 24.9023 24.5489 24.8803 23.1758 24.9023C23.203 24.2686 23.2916 23.6489 23.4414 23.043ZM4.18359 27.0273C6.57422 27.0273 8.96484 27.0273 11.3555 27.0273C10.8704 28.879 10.4277 30.7384 10.0273 32.6055C7.36962 32.6497 4.71337 32.6055 2.05859 32.4727C2.80549 30.6696 3.51382 28.8545 4.18359 27.0273ZM13.6133 27.0273C15.9613 26.9831 18.3077 27.0273 20.6523 27.1602C20.3125 28.9635 20.0469 30.7786 19.8555 32.6055C17.2878 32.6055 14.72 32.6055 12.1523 32.6055C12.6393 30.7462 13.1263 28.8869 13.6133 27.0273ZM9.49609 34.7305C11.1784 34.7305 12.8607 34.7305 14.543 34.7305C14.543 37.2981 14.543 39.8659 14.543 42.4336C12.8607 42.4336 11.1784 42.4336 9.49609 42.4336C9.49609 39.8659 9.49609 37.2981 9.49609 34.7305ZM16.668 34.7305C18.4388 34.7305 20.2097 34.7305 21.9805 34.7305C21.9805 37.2981 21.9805 39.8659 21.9805 42.4336C20.2097 42.4336 18.4388 42.4336 16.668 42.4336C16.668 39.8659 16.668 37.2981 16.668 34.7305ZM24.1055 34.7305C25.7878 34.7305 27.47 34.7305 29.1523 34.7305C29.1523 37.2981 29.1523 39.8659 29.1523 42.4336C27.47 42.4336 25.7878 42.4336 24.1055 42.4336C24.1055 39.8659 24.1055 37.2981 24.1055 34.7305ZM9.49609 44.5586C16.0481 44.5586 22.6003 44.5586 29.1523 44.5586C29.1523 44.7356 29.1523 44.9128 29.1523 45.0898C22.6003 45.0898 16.0481 45.0898 9.49609 45.0898C9.49609 44.9128 9.49609 44.7356 9.49609 44.5586ZM9.49609 47.2148C11.1784 47.2148 12.8607 47.2148 14.543 47.2148C14.543 50.2253 14.543 53.2356 14.543 56.2461C12.8607 56.2461 11.1784 56.2461 9.49609 56.2461C9.49609 53.2356 9.49609 50.2253 9.49609 47.2148ZM16.668 47.2148C18.4388 47.2148 20.2097 47.2148 21.9805 47.2148C21.9805 50.2253 21.9805 53.2356 21.9805 56.2461C20.2097 56.2461 18.4388 56.2461 16.668 56.2461C16.668 53.2356 16.668 50.2253 16.668 47.2148ZM24.1055 47.2148C25.7878 47.2148 27.47 47.2148 29.1523 47.2148C29.1523 50.2253 29.1523 53.2356 29.1523 56.2461C27.47 56.2461 25.7878 56.2461 24.1055 56.2461C24.1055 53.2356 24.1055 50.2253 24.1055 47.2148ZM39.2461 51.332C43.4075 51.332 47.5691 51.332 51.7305 51.332C51.7305 51.8191 51.7305 52.306 51.7305 52.793C47.5691 52.793 43.4075 52.793 39.2461 52.793C39.2461 52.306 39.2461 51.8191 39.2461 51.332Z" fill="white"/>
<path opacity="0.944" fill-rule="evenodd" clip-rule="evenodd" d="M40.8399 39.9102C44.1229 39.8489 47.3988 39.9153 50.668 40.1094C50.8275 40.2293 50.9383 40.3842 51 40.5742C51.0664 43.4515 51.0886 46.3291 51.0664 49.207C51.7762 49.185 52.4845 49.2072 53.1914 49.2734C53.536 49.4513 53.7352 49.7391 53.7891 50.1367C53.9123 51.5631 53.8681 52.9798 53.6563 54.3867C53.495 54.5924 53.2958 54.7473 53.0586 54.8516C48.0118 54.9401 42.9649 54.9401 37.918 54.8516C37.5417 54.7409 37.2982 54.4973 37.1875 54.1211C37.0989 52.7044 37.0989 51.2878 37.1875 49.8711C37.2982 49.5833 37.4974 49.3841 37.7852 49.2734C38.4478 49.2072 39.1119 49.185 39.7774 49.207C39.7552 46.4176 39.7774 43.6285 39.8438 40.8398C39.9931 40.3136 40.3251 40.0038 40.8399 39.9102ZM41.9024 42.0352C44.293 42.0352 46.6836 42.0352 49.0743 42.0352C49.0743 44.4258 49.0743 46.8164 49.0743 49.207C46.6836 49.207 44.293 49.207 41.9024 49.207C41.9024 46.8164 41.9024 44.4258 41.9024 42.0352ZM39.2461 51.332C39.2461 51.819 39.2461 52.3059 39.2461 52.793C43.4075 52.793 47.5691 52.793 51.7305 52.793C51.7305 52.3059 51.7305 51.819 51.7305 51.332C47.5691 51.332 43.4075 51.332 39.2461 51.332Z" fill="white"/>
</g>
<defs>
<clipPath id="clip0_866_982">
<rect width="68" height="68" fill="white"/>
</clipPath>
</defs>
</svg>
