<svg width="16" height="16" viewBox="0 0 16 16" fill="none" xmlns="http://www.w3.org/2000/svg">
<path d="M14.2658 11.1293C13.8957 10.7506 12.294 9.47733 11.8965 9.394C11.4544 9.30067 11.1043 9.504 10.7949 9.682C10.4768 9.86533 10.2027 10.024 9.85728 9.89866C8.08679 9.17601 6.82245 7.91203 6.10225 6.14872C5.97488 5.79806 6.13292 5.52273 6.31631 5.20474C6.49436 4.89608 6.69508 4.54542 6.60372 4.10342C6.52103 3.7061 5.24801 2.10479 4.86857 1.73479C4.61784 1.4908 4.36177 1.35613 4.0997 1.33413C3.11076 1.2928 1.88909 2.71678 1.69503 3.02944C1.20957 3.6981 1.2129 4.58541 1.7037 5.66273C2.88536 8.55602 7.40261 13.0733 10.3301 14.2906C10.8696 14.5413 11.3637 14.6666 11.8072 14.6666C12.2419 14.6666 12.628 14.5459 12.9601 14.3073C13.2102 14.1646 14.702 12.8993 14.6659 11.892C14.6446 11.6346 14.5099 11.3786 14.2658 11.1293Z" fill="#E1261D"/>
</svg>
