<?xml version="1.0" standalone="no"?>
<!DOCTYPE svg PUBLIC "-//W3C//DTD SVG 20010904//EN"
 "http://www.w3.org/TR/2001/REC-SVG-20010904/DTD/svg10.dtd">
<svg version="1.0" xmlns="http://www.w3.org/2000/svg"
 width="700.000000pt" height="700.000000pt" viewBox="0 0 700.000000 700.000000"
 preserveAspectRatio="xMidYMid meet">
<metadata>
Created by potrace 1.14, written by Peter Selinger 2001-2017
</metadata>
<g transform="translate(0.000000,700.000000) scale(0.100000,-0.100000)"
fill="#000000" stroke="none">
<path d="M6720 5085 c-129 -30 -246 -56 -260 -59 -52 -10 -168 -36 -181 -41
-8 -2 -25 -6 -39 -9 -14 -2 -99 -21 -190 -41 -91 -20 -173 -38 -183 -40 -10
-2 -26 -6 -35 -9 -9 -3 -28 -7 -42 -10 -14 -2 -68 -14 -120 -26 -52 -12 -104
-24 -115 -25 -11 -2 -58 -13 -105 -24 -47 -11 -96 -22 -110 -25 -14 -2 -95
-20 -180 -39 -85 -20 -166 -38 -180 -40 -14 -3 -279 -62 -590 -132 -311 -69
-576 -129 -590 -131 -35 -7 -282 -62 -355 -79 -105 -25 -339 -77 -365 -81 -29
-6 -315 -69 -375 -84 -22 -5 -94 -21 -160 -35 -66 -15 -129 -29 -140 -31 -11
-3 -31 -7 -45 -10 -13 -3 -63 -14 -110 -25 -47 -11 -125 -29 -175 -39 -49 -11
-139 -31 -200 -45 -107 -25 -128 -29 -190 -40 -16 -3 -38 -8 -47 -11 -9 -3
-25 -7 -35 -9 -10 -2 -81 -18 -158 -35 -77 -17 -151 -34 -165 -36 -20 -4 -220
-49 -315 -70 -21 -5 -48 -11 -80 -18 -173 -38 -242 -63 -363 -135 -85 -50
-191 -141 -252 -217 -41 -49 -70 -93 -70 -103 0 -5 -3 -11 -7 -13 -26 -11
-105 -217 -124 -323 -12 -71 -21 -1063 -9 -1069 3 -2 183 37 400 85 217 49
404 91 415 93 11 2 83 18 160 36 77 17 151 33 165 36 14 3 95 21 180 40 85 20
166 38 180 40 14 3 45 10 70 15 53 12 43 10 195 44 66 14 147 32 180 40 52 12
736 164 805 179 14 3 43 10 65 15 22 5 51 12 65 15 23 4 122 26 345 76 50 11
99 22 110 24 11 3 173 39 360 80 187 42 349 78 360 80 17 4 40 9 140 32 11 3
31 7 45 10 14 2 84 18 155 34 72 16 141 31 155 34 14 2 57 12 95 21 39 9 81
19 95 21 14 3 63 14 110 25 47 12 96 23 110 26 22 4 75 15 135 29 11 3 30 7
42 10 13 2 215 47 450 100 236 52 439 98 453 100 315 60 525 182 691 404 85
113 159 303 176 450 11 93 9 1013 -2 1016 -6 1 -116 -22 -245 -51z"/>
</g>
</svg>
