<?xml version="1.0" standalone="no"?>
<!DOCTYPE svg PUBLIC "-//W3C//DTD SVG 20010904//EN"
 "http://www.w3.org/TR/2001/REC-SVG-20010904/DTD/svg10.dtd">
<svg version="1.0" xmlns="http://www.w3.org/2000/svg"
 width="700.000000pt" height="700.000000pt" viewBox="0 0 700.000000 700.000000"
 preserveAspectRatio="xMidYMid meet">
<metadata>
Created by potrace 1.14, written by Peter Selinger 2001-2017
</metadata>
<g transform="translate(0.000000,700.000000) scale(0.100000,-0.100000)"
fill="#000000" stroke="none">
<path d="M3397 6014 c-1 -1 -40 -4 -87 -7 -469 -31 -943 -212 -1339 -510 -109
-82 -350 -317 -433 -423 -63 -79 -170 -235 -212 -307 -43 -76 -142 -278 -157
-322 -7 -22 -16 -44 -20 -50 -16 -23 -101 -313 -115 -392 -2 -13 -6 -35 -9
-50 -3 -16 -8 -46 -11 -68 -3 -22 -8 -51 -10 -65 -22 -134 -22 -513 0 -640 2
-14 10 -59 16 -100 12 -76 16 -93 45 -210 24 -92 83 -274 100 -307 8 -15 15
-32 15 -36 0 -4 29 -66 64 -136 149 -300 329 -538 572 -757 49 -44 109 -96
134 -114 25 -19 47 -37 50 -40 12 -13 162 -111 230 -150 86 -51 273 -144 310
-155 14 -4 43 -16 65 -26 77 -34 313 -101 425 -120 193 -32 315 -43 485 -42
169 0 308 13 455 43 30 6 67 13 82 15 59 11 279 78 363 112 338 135 595 304
856 563 80 80 154 157 165 171 10 14 45 60 76 102 109 143 212 320 297 510 17
37 31 73 31 80 0 7 4 17 9 22 21 22 109 337 127 450 4 28 9 57 11 65 12 59 27
276 27 400 -2 439 -122 873 -353 1268 -148 253 -390 524 -651 725 -142 110
-350 226 -595 332 -69 30 -317 103 -405 120 -29 5 -160 27 -187 30 -83 12
-416 26 -426 19z m278 -938 c97 -13 125 -18 205 -38 504 -122 921 -493 1104
-981 97 -260 123 -516 81 -817 -4 -25 -18 -88 -32 -140 -99 -373 -314 -680
-632 -904 -380 -267 -876 -349 -1341 -220 -30 8 -64 19 -75 23 -11 5 -38 16
-60 24 -72 27 -179 79 -233 113 -29 19 -54 34 -57 34 -3 0 -13 6 -22 14 -10 8
-47 36 -83 63 -222 164 -434 457 -527 728 -37 110 -76 287 -82 375 -10 142 -2
323 19 430 6 30 13 69 16 85 9 54 71 228 110 310 106 224 268 425 470 585 21
16 106 73 169 112 164 101 437 189 634 204 42 3 77 7 79 8 4 5 215 -2 257 -8z"/>
</g>
</svg>
