<svg width="69" height="68" viewBox="0 0 69 68" fill="none" xmlns="http://www.w3.org/2000/svg">
<g clip-path="url(#clip0_869_1449)">
<path opacity="0.942" fill-rule="evenodd" clip-rule="evenodd" d="M68.0483 31.9414C68.0483 32.4284 68.0483 32.9153 68.0483 33.4023C67.7225 34.1429 67.1471 34.5634 66.3218 34.6641C64.4187 34.7305 62.515 34.7527 60.6108 34.7305C60.633 36.5904 60.6108 38.4498 60.5444 40.3086C59.6885 41.0937 59.0244 40.9608 58.5522 39.9102C58.4858 38.1841 58.4637 36.4576 58.4858 34.7305C49.4546 34.7305 40.4233 34.7305 31.3921 34.7305C31.3921 43.4961 31.3921 52.2617 31.3921 61.0273C40.4233 61.0273 49.4546 61.0273 58.4858 61.0273C58.4637 55.2277 58.4858 49.4282 58.5522 43.6289C58.7468 42.8117 59.2559 42.5239 60.0796 42.7656C60.2346 42.9206 60.3894 43.0755 60.5444 43.2305C60.633 49.3841 60.633 55.5378 60.5444 61.6914C60.3082 62.2375 59.9319 62.658 59.4155 62.9531C45.4749 63.1731 31.5296 63.2173 17.5796 63.0859C16.7705 62.7839 16.5269 62.2305 16.8491 61.4258C16.9691 61.2663 17.1239 61.1555 17.314 61.0938C21.2981 61.0273 25.2824 61.0052 29.2671 61.0273C29.2671 60.1419 29.2671 59.2566 29.2671 58.3711C22.7151 58.3711 16.1629 58.3711 9.61084 58.3711C9.61084 59.2566 9.61084 60.1419 9.61084 61.0273C11.1609 61.0052 12.7104 61.0273 14.2593 61.0938C14.8241 61.548 14.9349 62.1014 14.5913 62.7539C14.4028 62.8814 14.2036 62.992 13.9937 63.0859C12.4442 63.1745 10.8947 63.1745 9.34521 63.0859C8.48017 62.9744 7.88251 62.5095 7.55225 61.6914C7.48584 52.7045 7.4637 43.7175 7.48584 34.7305C5.58168 34.7527 3.67804 34.7305 1.7749 34.6641C0.949631 34.5634 0.374109 34.1429 0.0483398 33.4023C0.0483398 32.9153 0.0483398 32.4284 0.0483398 31.9414C2.47045 25.8063 4.88322 19.6525 7.28662 13.4805C7.58166 12.9641 8.00224 12.5878 8.54834 12.3516C20.3243 12.2852 32.1004 12.263 43.8765 12.2852C43.8765 11.6654 43.8765 11.0456 43.8765 10.4258C42.9988 10.6097 42.3126 10.344 41.8179 9.62891C41.7293 8.25652 41.7293 6.88411 41.8179 5.51172C41.9207 5.18775 42.1199 4.94425 42.4155 4.78125C46.4441 4.69271 50.4729 4.69271 54.5015 4.78125C54.7449 4.93621 54.9441 5.13542 55.0991 5.37891C55.1877 6.79558 55.1877 8.21224 55.0991 9.62891C54.9949 9.86611 54.84 10.0653 54.6343 10.2266C54.117 10.3947 53.5857 10.4611 53.0405 10.4258C53.0405 11.0456 53.0405 11.6654 53.0405 12.2852C55.2103 12.263 57.3795 12.2852 59.5483 12.3516C59.9089 12.4681 60.2189 12.6673 60.478 12.9492C63.043 19.2728 65.5665 25.6035 68.0483 31.9414ZM43.8765 6.70703C46.9754 6.70703 50.0744 6.70703 53.1733 6.70703C53.1733 7.23828 53.1733 7.76953 53.1733 8.30078C50.0744 8.30078 46.9754 8.30078 43.8765 8.30078C43.8765 7.76953 43.8765 7.23828 43.8765 6.70703ZM46.0015 10.4258C47.6394 10.4258 49.2775 10.4258 50.9155 10.4258C50.9155 11.0456 50.9155 11.6654 50.9155 12.2852C49.2775 12.2852 47.6394 12.2852 46.0015 12.2852C46.0015 11.6654 46.0015 11.0456 46.0015 10.4258ZM9.2124 14.4102C11.1181 14.3659 13.0217 14.4103 14.9233 14.543C14.5507 15.7238 14.2408 16.9191 13.9937 18.1289C11.9125 18.1511 9.83172 18.1289 7.75146 18.0625C8.25733 16.8517 8.7443 15.6343 9.2124 14.4102ZM17.1812 14.4102C17.4026 14.4102 17.6238 14.4102 17.8452 14.4102C17.8452 15.6497 17.8452 16.8894 17.8452 18.1289C17.268 18.151 16.6925 18.1288 16.1187 18.0625C16.4834 16.8473 16.8374 15.6298 17.1812 14.4102ZM19.9702 14.4102C32.9419 14.3659 45.9133 14.4102 58.8843 14.543C61.2567 20.509 63.603 26.4856 65.9233 32.4727C60.8101 32.5169 55.6968 32.5612 50.5835 32.6055C45.3297 32.6265 40.0836 32.5601 34.8452 32.4063C34.4165 32.1987 34.1287 31.8666 33.9819 31.4102C33.0163 28.2476 31.998 25.1044 30.9272 21.9805C30.5676 21.5018 30.1027 21.1698 29.5327 20.9844C26.7879 20.9402 24.0432 20.8958 21.2983 20.8516C20.7393 20.6939 20.3187 20.3619 20.0366 19.8555C19.9702 18.0409 19.948 16.2258 19.9702 14.4102ZM6.95459 20.2539C9.08144 20.2097 11.2064 20.254 13.3296 20.3867C12.8893 21.8822 12.4909 23.3874 12.1343 24.9023C9.8322 24.9023 7.53011 24.9023 5.22803 24.9023C5.76609 23.3391 6.34161 21.7898 6.95459 20.2539ZM15.5874 20.2539C16.3843 20.2539 17.1812 20.2539 17.978 20.2539C18.4635 21.8674 19.5481 22.7971 21.2319 23.043C21.2635 23.6204 21.2193 24.1959 21.0991 24.7695C18.8737 24.9013 16.6381 24.9455 14.3921 24.9023C14.7286 23.3346 15.1271 21.7851 15.5874 20.2539ZM23.5562 23.043C25.3718 23.0208 27.1868 23.043 29.0015 23.1094C30.1373 26.2294 31.1556 29.3947 32.0562 32.6055C28.7358 32.6055 25.4155 32.6055 22.0952 32.6055C22.332 30.742 22.5976 28.8826 22.8921 27.0273C24.3095 27.0495 25.7262 27.0273 27.1421 26.9609C27.8935 26.718 28.1371 26.2088 27.8726 25.4336C27.8062 25.1902 27.6512 25.0352 27.4077 24.9688C26.036 24.9023 24.6637 24.8803 23.2905 24.9023C23.3178 24.2686 23.4063 23.6489 23.5562 23.043ZM4.29834 27.0273C6.68896 27.0273 9.07959 27.0273 11.4702 27.0273C10.9851 28.879 10.5424 30.7384 10.1421 32.6055C7.48437 32.6497 4.82812 32.6055 2.17334 32.4727C2.92024 30.6696 3.62857 28.8545 4.29834 27.0273ZM13.728 27.0273C16.076 26.9831 18.4224 27.0273 20.7671 27.1602C20.4272 28.9635 20.1616 30.7786 19.9702 32.6055C17.4026 32.6055 14.8348 32.6055 12.2671 32.6055C12.754 30.7462 13.241 28.8869 13.728 27.0273ZM9.61084 34.7305C11.2931 34.7305 12.9754 34.7305 14.6577 34.7305C14.6577 37.2981 14.6577 39.8659 14.6577 42.4336C12.9754 42.4336 11.2931 42.4336 9.61084 42.4336C9.61084 39.8659 9.61084 37.2981 9.61084 34.7305ZM16.7827 34.7305C18.5535 34.7305 20.3244 34.7305 22.0952 34.7305C22.0952 37.2981 22.0952 39.8659 22.0952 42.4336C20.3244 42.4336 18.5535 42.4336 16.7827 42.4336C16.7827 39.8659 16.7827 37.2981 16.7827 34.7305ZM24.2202 34.7305C25.9026 34.7305 27.5848 34.7305 29.2671 34.7305C29.2671 37.2981 29.2671 39.8659 29.2671 42.4336C27.5848 42.4336 25.9026 42.4336 24.2202 42.4336C24.2202 39.8659 24.2202 37.2981 24.2202 34.7305ZM9.61084 44.5586C16.1629 44.5586 22.7151 44.5586 29.2671 44.5586C29.2671 44.7356 29.2671 44.9128 29.2671 45.0898C22.7151 45.0898 16.1629 45.0898 9.61084 45.0898C9.61084 44.9128 9.61084 44.7356 9.61084 44.5586ZM9.61084 47.2148C11.2931 47.2148 12.9754 47.2148 14.6577 47.2148C14.6577 50.2253 14.6577 53.2356 14.6577 56.2461C12.9754 56.2461 11.2931 56.2461 9.61084 56.2461C9.61084 53.2356 9.61084 50.2253 9.61084 47.2148ZM16.7827 47.2148C18.5535 47.2148 20.3244 47.2148 22.0952 47.2148C22.0952 50.2253 22.0952 53.2356 22.0952 56.2461C20.3244 56.2461 18.5535 56.2461 16.7827 56.2461C16.7827 53.2356 16.7827 50.2253 16.7827 47.2148ZM24.2202 47.2148C25.9026 47.2148 27.5848 47.2148 29.2671 47.2148C29.2671 50.2253 29.2671 53.2356 29.2671 56.2461C27.5848 56.2461 25.9026 56.2461 24.2202 56.2461C24.2202 53.2356 24.2202 50.2253 24.2202 47.2148ZM39.3608 51.332C43.5223 51.332 47.6838 51.332 51.8452 51.332C51.8452 51.8191 51.8452 52.306 51.8452 52.793C47.6838 52.793 43.5223 52.793 39.3608 52.793C39.3608 52.306 39.3608 51.8191 39.3608 51.332Z" fill="white"/>
<path opacity="0.944" fill-rule="evenodd" clip-rule="evenodd" d="M40.9546 39.9102C44.2376 39.849 47.5136 39.9154 50.7827 40.1094C50.9423 40.2294 51.053 40.3842 51.1148 40.5743C51.1812 43.4515 51.2034 46.3292 51.1812 49.2071C51.8909 49.185 52.5992 49.2072 53.3062 49.2735C53.6507 49.4513 53.8499 49.7391 53.9038 50.1368C54.0271 51.5632 53.9829 52.9799 53.771 54.3868C53.6098 54.5925 53.4106 54.7474 53.1734 54.8516C48.1265 54.9402 43.0796 54.9402 38.0327 54.8516C37.6565 54.741 37.4129 54.4974 37.3023 54.1212C37.2137 52.7044 37.2137 51.2879 37.3023 49.8712C37.4129 49.5833 37.6121 49.3841 37.8999 49.2735C38.5625 49.2072 39.2266 49.185 39.8921 49.2071C39.8699 46.4176 39.8921 43.6286 39.9585 40.8399C40.1078 40.3137 40.4398 40.0038 40.9546 39.9102ZM42.0171 42.0352C44.4077 42.0352 46.7984 42.0352 49.189 42.0352C49.189 44.4258 49.189 46.8165 49.189 49.2071C46.7984 49.2071 44.4077 49.2071 42.0171 49.2071C42.0171 46.8165 42.0171 44.4258 42.0171 42.0352ZM39.3609 51.3321C39.3609 51.8191 39.3609 52.306 39.3609 52.793C43.5223 52.793 47.6838 52.793 51.8452 52.793C51.8452 52.306 51.8452 51.8191 51.8452 51.3321C47.6838 51.3321 43.5223 51.3321 39.3609 51.3321Z" fill="white"/>
</g>
<defs>
<clipPath id="clip0_869_1449">
<rect width="68" height="68" fill="white" transform="translate(0.114746)"/>
</clipPath>
</defs>
</svg>
